<svg xmlns="http://www.w3.org/2000/svg" xmlns:xlink="http://www.w3.org/1999/xlink" viewBox="0 0 676.5 187.5"><defs><style>.cls-1{opacity:0.5;fill:url(#linear-gradient);}</style><linearGradient id="linear-gradient" y1="93.75" x2="676.5" y2="93.75" gradientUnits="userSpaceOnUse"><stop offset="0" stop-color="#3fa9f5"/><stop offset="1" stop-color="blue"/></linearGradient></defs><title>Asset 1</title><g id="Layer_2" data-name="Layer 2"><g id="Layer_1-2" data-name="Layer 1"><path class="cls-1" d="M584.5,0a92,92,0,0,0-91.56,83,72.6,72.6,0,0,1,0,18,73,73,0,0,1-72.44,64c-42.4,0-72.27-42.64-72.6-65.35-.25-16.83.83-17.51-4.85-34-9.4-27.3-33.3-49.85-59.88-58.09A95.57,95.57,0,0,0,256,3.5a92,92,0,0,0-82,50.26,92,92,0,1,0,0,83.48,91,91,0,0,0,9.39-31.19A73,73,0,0,1,256,25.5c43.41,0,72.08,43.54,72.52,64.69A91.74,91.74,0,0,0,339.13,135a92,92,0,0,0,163.37-1.21A92,92,0,1,0,584.5,0ZM92,168.5a73,73,0,1,1,72.44-82,72.6,72.6,0,0,1,0,18A73,73,0,0,1,92,168.5Zm492.5-.5a73,73,0,0,1-73-73,71.79,71.79,0,0,1,.72-10.22A73,73,0,1,1,584.5,168Z"/></g></g></svg>