<svg xmlns="http://www.w3.org/2000/svg" viewBox="0 0 89.63 80.33"><defs><style>.cls-1{fill:#9fbbd1;}.cls-2{fill:#fff;}.cls-3{fill:#352c22;}.cls-4{fill:#f79175;}.cls-5{fill:#166ac3;}</style></defs><title>Asset 4</title><g id="Layer_2" data-name="Layer 2"><g id="objects"><path class="cls-1" d="M31.66,44.64a.89.89,0,0,0-.23.28l-.07.11C30,47.34,20.22,56.11,16.56,59.29l-1,.87a.87.87,0,0,0-.32.67l-.16.85c-.15.19-.19.48.07,1a49.76,49.76,0,0,1-9.59,6.64,4.9,4.9,0,0,0-2.52,2.75c-.12.31-.23.66-.36,1A15.66,15.66,0,0,1,.21,78.31a1,1,0,0,0,.05,1.31l.11.13h0l.15.19a1.07,1.07,0,0,0,.82.39,1,1,0,0,0,.46-.11,15.8,15.8,0,0,1,5.51-1.51l1.09-.15a5,5,0,0,0,3.17-2,49.38,49.38,0,0,1,8.28-8.21,1.39,1.39,0,0,0,.75.28l.19,0h1a.86.86,0,0,0,.69-.17l1-.83c3.81-3,14.25-11,16.77-11.88l.11,0a.87.87,0,0,0,.29-.15L48,49.12a.88.88,0,0,0,.61-.2L73.76,28l1,.54,4.15-3.45A1.25,1.25,0,0,0,79.32,24a1.37,1.37,0,0,0-.16-.52L82,21.14h0l.24-.23.3-.29c.12-.11.24-.24.36-.37l.35-.37.38-.44c.12-.15.25-.29.38-.44l.4-.5.39-.5.41-.55.39-.53.41-.6c.13-.18.26-.36.38-.55l.41-.63.34-.56c.14-.22.26-.44.39-.66s.18-.31.26-.47a.67.67,0,0,0,.29-.52l-.28-.9a19.5,19.5,0,0,0-2.15-3h0A18.13,18.13,0,0,0,83.13,6.4L82.19,6a.81.81,0,0,0-.43.14c-.18.05-.37.12-.55.19l-.68.24-.63.25c-.23.09-.46.17-.68.27l-.64.28L78,7.65,77.28,8l-.53.26-.7.37-.41.22-.7.4-.3.18L74,9.8l-.24.16-.47.34-.2.14h0l-.14.12h0l-.09.07h0L70.14,12.9a1.19,1.19,0,0,0-.47-.25,1.24,1.24,0,0,0-1.11.25l-4,3.35.35,1L39.68,38.2a.88.88,0,0,0-.28.42l-7.54,5.87Z"/><path class="cls-2" d="M12.44,70.11a51.38,51.38,0,0,1,8.74-8.61l-1.81-2.17-.05-.06-1.8-2.17a51.8,51.8,0,0,1-10.06,7,4.05,4.05,0,0,0-2.11,2.3c-.55,1.49-1.16,4.17-3,6.41a.23.23,0,0,0,0,.28l.1.13,0,0,.1.13a.22.22,0,0,0,.27.09C5.48,72.14,8.22,72,9.79,71.75A4.08,4.08,0,0,0,12.44,70.11Z"/><path class="cls-3" d="M2.87,74.33a1.07,1.07,0,0,1-.82-.39l-.26-.32a1,1,0,0,1-.05-1.31,15.66,15.66,0,0,0,2.49-5.14q.2-.58.36-1a4.93,4.93,0,0,1,2.52-2.75A50.71,50.71,0,0,0,17,56.49l.63-.57,4.74,5.71-.67.52c-.05,0-5.58,4.3-8.57,8.44a5,5,0,0,1-3.17,2l-1.09.15a15.8,15.8,0,0,0-5.51,1.51A1,1,0,0,1,2.87,74.33ZM17.42,58.26A48.71,48.71,0,0,1,7.8,64.84a3.25,3.25,0,0,0-1.68,1.85c-.11.29-.22.62-.34,1a20,20,0,0,1-2,4.53,20.1,20.1,0,0,1,4.8-1.1l1-.15a3.27,3.27,0,0,0,2.12-1.32h0A48.93,48.93,0,0,1,20,61.38Z"/><path class="cls-4" d="M21.69,61.61h0c.16-.13-.66-1.37-1.82-2.77s-2.23-2.42-2.38-2.29,0,0,0,.07h0v.5c-.14.11.57,1.19,1.58,2.4s1.94,2.12,2.08,2l.5.1Z"/><path class="cls-4" d="M24.39,61.1h0c-.22.18-1.71-1.26-3.33-3.21S18.29,54.2,18.5,54h0l-.82.73h0s0,0,0,0h0c-.07.32,1,2,2.55,3.81s2.94,3.22,3.28,3.21h0Z"/><path class="cls-5" d="M85.9,4.14c-1.33-1.6-2.27-3-2.19-3.28A31.52,31.52,0,0,0,75,5.19h0c0,.19,0,.34-.06.39a.26.26,0,0,1-.39,0L41.73,32.83s0,.1,0,.21l-8,6.19h0l0,0h0a.09.09,0,0,0,0,.07l-.08.1c-1.7,2.94-15,14.46-15,14.46l-1,.88a.12.12,0,0,0,0,.11l-.23,1.19c-.18.14.75,1.55,2.07,3.14S22,62,22.15,61.82h1.32L24.52,61s13.8-10.87,17-12l.1,0,.07,0v0l0,0h0l7.54-6.64c.15.09.26.11.31.07L82.4,15a.27.27,0,0,1,.06-.39c.07-.05.21,0,.39,0h0a31.14,31.14,0,0,0,5.86-7.77C88.45,6.93,87.23,5.73,85.9,4.14Z"/><path class="cls-3" d="M22.13,62.66c-.53,0-1.05-.51-1.47-.9s-1.18-1.23-1.84-2c-2.39-2.88-2.49-3.66-2.19-4.06l.16-.85a.87.87,0,0,1,.32-.67l1-.87C21.76,50.11,31.54,41.34,32.89,39l.07-.11a.89.89,0,0,1,.23-.28l.2-.15,7.54-5.87a1,1,0,0,1,.28-.42L74.63,4.44h0A32.78,32.78,0,0,1,83.46.08l1.09.8a17.81,17.81,0,0,0,2,2.74h0a18.6,18.6,0,0,0,2.32,2.44l.59,1.22a32.83,32.83,0,0,1-5.89,7.86h0L50.12,42.92a.93.93,0,0,1-.62.2l-7.31,6.44a.87.87,0,0,1-.29.15l-.11,0c-2.52.9-13,8.88-16.76,11.88L24,62.46a.9.9,0,0,1-.7.17h-1Zm.85-1.5,0,0Zm-4.78-5a18.2,18.2,0,0,0,1.87,2.59A17.74,17.74,0,0,0,22.27,61h.92l.83-.65c.56-.44,13.81-10.87,17.19-12.12l.07,0,7.91-7,.24.14L81.54,14.7a1.09,1.09,0,0,1,.4-.67,1,1,0,0,1,.66-.23,31.53,31.53,0,0,0,5-6.63,20.72,20.72,0,0,1-2.37-2.51,19.28,19.28,0,0,1-2-2.79A31.85,31.85,0,0,0,75.79,5.6a1,1,0,0,1-.34.62,1.08,1.08,0,0,1-.73.26L42.58,33.18l0,.18-.4.32-7.95,6.21C32.39,43,19.71,54.05,19.17,54.52l-.79.69Zm0-.74,0,0Z"/><path class="cls-4" d="M86.57,3.58C85.19,1.9,83.91.67,83.72.83c0,0,0,0,0,.07s0,0,0,0A31.52,31.52,0,0,0,75,5.19l-.08.07c-.29.24,1.23,2.56,3.4,5.17s4.17,4.54,4.46,4.3l.08-.07a31.14,31.14,0,0,0,5.86-7.77s0,0,0,0,.06,0,.07,0C88.94,6.73,88,5.25,86.57,3.58Z"/><path class="cls-3" d="M82.77,15.58c-.63,0-1.89-.79-5.08-4.63A43.59,43.59,0,0,1,75,7.41c-.79-1.21-1.34-2.18-.61-2.77l.08-.07A31.72,31.72,0,0,1,83.29.14.84.84,0,0,1,83.72,0l.94.4A18.13,18.13,0,0,1,87.2,3.06h0a18.8,18.8,0,0,1,2.15,3l.28.9a.67.67,0,0,1-.29.52,31.51,31.51,0,0,1-6,7.83l-.08.07A.77.77,0,0,1,82.77,15.58Zm-7-10A28.62,28.62,0,0,0,79,9.91a29.1,29.1,0,0,0,3.67,3.87,31.67,31.67,0,0,0,5.26-7A19.84,19.84,0,0,0,86,4.1h0A19.73,19.73,0,0,0,83.7,1.71,31.87,31.87,0,0,0,75.82,5.59Z"/><path class="cls-4" d="M78.56,16.66a23.31,23.31,0,0,1-4.44-4.49,25.59,25.59,0,0,1-1.77-2.62,19.74,19.74,0,0,1-.88-1.93.63.63,0,0,0-1-.25l-3.71,3.08.26.8c.4,1.17,1.57,2.92,3.71,5.49s3.62,4,4.71,4.65l.73.41L80,18.62a.62.62,0,0,0-.06-1A16.24,16.24,0,0,1,78.56,16.66Z"/><path class="cls-3" d="M76.25,22.54l-1.1-.62c-1.15-.65-2.7-2.17-4.88-4.78s-3.4-4.45-3.82-5.7l-.4-1.19,4-3.35a1.24,1.24,0,0,1,2,.5c.29.75.76,1.7.84,1.85a24.15,24.15,0,0,0,1.73,2.55,22.67,22.67,0,0,0,4.32,4.37h0c.44.33.89.64,1.34.92a1.23,1.23,0,0,1,.58.95,1.25,1.25,0,0,1-.45,1.05ZM67.48,10.66l.13.39a20.79,20.79,0,0,0,3.6,5.3,21,21,0,0,0,4.54,4.51l.36.21,3.51-2.92c-.47-.32-1-.65-1.43-1h0a23.36,23.36,0,0,1-4.55-4.6,22.07,22.07,0,0,1-1.82-2.69,18.7,18.7,0,0,1-.92-2Z"/><path class="cls-4" d="M73.44,15.5l-1-1.27a1.27,1.27,0,0,0-1.78-.16l-4.87,4,.06.08c-.79.84-4.3,3.94-9.3,8.09s-8.7,7-9.67,7.66l-.06-.07L44.93,35.4a2.08,2.08,0,0,0,2.67,3.2l1.56-1.3.08-.1c.28-.43,4-3.72,9.46-8.27s9.38-7.58,9.86-7.77l4.71-3.89A1.26,1.26,0,0,0,73.44,15.5Z"/><path class="cls-3" d="M46.27,39.69a2.69,2.69,0,0,1-1.73-4.76l1.92-1.47c1-.62,4.64-3.49,9.65-7.65s9.17-8.1,9.21-8.14l4.14-3.48.79.93-4.12,3.46s-4.28,4.05-9.24,8.17-8.76,7.09-9.73,7.71l-1.85,1.42a1.47,1.47,0,0,0-.18,2.06,1.52,1.52,0,0,0,2.08.19l1.56-1.3s4.11-3.86,9.54-8.37c4.26-3.53,8.9-7.25,9.91-7.81l3.93-3.28.78.93-4.14,3.42c-.46.23-4.1,3-9.7,7.68-5.4,4.49-9.47,8.31-9.51,8.35L48,39.07A2.73,2.73,0,0,1,46.27,39.69Z"/><path class="cls-3" d="M2.52,74a.81.81,0,0,1-.62-.29A.8.8,0,0,1,2,72.61l9.14-7.69a.82.82,0,1,1,1,1.25L3.05,73.85A.82.82,0,0,1,2.52,74Z"/></g></g></svg>