<svg xmlns="http://www.w3.org/2000/svg" viewBox="0 0 41.34 62.31"><defs><style>.cls-1{fill:#9fbbd1;}.cls-2{fill:#5aa1e4;}.cls-3{fill:#352c22;}.cls-4{fill:#f79175;}.cls-5{fill:#fff;}.cls-6{fill:#166ac3;}</style></defs><title>Asset 6</title><g id="Layer_2" data-name="Layer 2"><g id="objects_2" data-name="objects 2"><path class="cls-1" d="M39.77,51.79a2.36,2.36,0,0,0,.45-2.94,2.39,2.39,0,0,0-1.91-1.17,2.36,2.36,0,0,0-1.5-4.07,2.38,2.38,0,0,0-1.28-4.06A13,13,0,0,0,36,38.23l.1-.38c.49-1.71,1-3.47,1.65-5.14a19.55,19.55,0,0,0-26.1-25h0a19.54,19.54,0,0,0-1.42,35.05c1.68.91,3.27,2,5,3.13a12.77,12.77,0,0,0,1.54.87l.94,2.57a2.37,2.37,0,0,0,1.47,4.11,2.25,2.25,0,0,0-.65,1.09,2.32,2.32,0,0,0,.24,1.8,2.36,2.36,0,0,0,1.9,1.18,2.41,2.41,0,0,0-.64,1.09,2.37,2.37,0,0,0,2.23,3c.92,1.65,5.93.23,10.05-1.29,1-.38,2.14-.81,3.18-1.27,3.15-1.38,5.81-3,5.28-4.43Z"/><path class="cls-2" d="M26,35.66c-4.67,1.72-8.22,3.75-7.92,4.55l5.49,14.91c.29.79,4.31,0,9-1.68s8.22-3.76,7.93-4.55L34.93,34C34.64,33.19,30.62,33.94,26,35.66Z"/><path class="cls-3" d="M36,53c-1,.46-2.13.89-3.18,1.27-4.24,1.57-9.44,3-10.14,1.15L17.18,40.52c-.69-1.89,4.22-4.15,8.46-5.71A41,41,0,0,1,31.92,33c1.75-.33,3.43-.47,3.86.68l5.49,14.91C41.79,50,39.14,51.63,36,53ZM24.26,54.53c.82.09,3.62-.35,7.93-1.94s6.73-3.07,7.29-3.67L34.19,34.57c-.81-.09-3.62.34-7.93,1.93S19.54,39.58,19,40.17Z"/><path class="cls-4" d="M12.47,2.51A18.65,18.65,0,0,0,11.11,36c1.77,1,3.44,2.06,5.12,3.17a13.63,13.63,0,0,0,1.79,1c0-.85,3.43-2.8,7.93-4.46s8.4-2.42,8.93-1.75A13,13,0,0,0,35.6,32c.54-1.89,1.06-3.78,1.78-5.61A18.65,18.65,0,0,0,12.47,2.51Z"/><path class="cls-5" d="M20.64,18.46c.11-.41.23-.82.33-1.24.16-.7.31-1.41.43-2.12q.09-.54.15-1.08c.05-.37.09-.73.11-1.11a10.9,10.9,0,0,0-.67.89c-.22.29-.42.59-.62.9-.4.6-.76,1.22-1.12,1.85-.7,1.25-1.33,2.53-1.9,3.83L16.1,23.22l3-1.17.57-.24c-.15.53-.3,1.07-.43,1.6-.19.77-.35,1.54-.49,2.32-.07.4-.13.79-.18,1.19s-.09.8-.11,1.21c.26-.31.5-.64.73-1s.46-.66.68-1q.64-1,1.2-2c.38-.69.73-1.39,1.07-2.1s.66-1.42,1-2.13l1.28-3-3.06,1.31Z"/><path class="cls-6" d="M19.29,43.65l-.21.12a1.48,1.48,0,0,0,1.24,2.67,1.12,1.12,0,0,0,.25-.11l15.59-9,.21-.12a1.48,1.48,0,0,0-1.24-2.67,1.12,1.12,0,0,0-.25.11Z"/><path class="cls-6" d="M20.79,47.72l-.2.12a1.48,1.48,0,0,0,1.23,2.67,1.12,1.12,0,0,0,.25-.11l15.59-9,.21-.12a1.49,1.49,0,0,0,.54-2,1.48,1.48,0,0,0-1.78-.65l-.25.11Z"/><path class="cls-6" d="M22.29,51.79l-.2.12a1.48,1.48,0,0,0,1.23,2.68l.25-.11,15.59-9,.21-.12a1.48,1.48,0,0,0-1.24-2.68l-.25.11Z"/><path class="cls-3" d="M35.08,35.6l-.81-1c-.68-.13-3.53.27-8,1.92s-6.91,3.2-7.33,3.74l0,1.3-1.31-.61a12.26,12.26,0,0,1-1.92-1.06c-1.77-1.17-3.37-2.22-5.05-3.13A19.55,19.55,0,0,1,12.11,1.69h0a19.4,19.4,0,0,1,15.54-.11A19.54,19.54,0,0,1,38.22,26.71c-.65,1.67-1.16,3.43-1.65,5.14l-.11.38a12.89,12.89,0,0,1-.77,2.06ZM22.64,36c1.14-.5,2.22-.92,3-1.21,2.08-.76,6.45-2.24,8.72-2a9.19,9.19,0,0,0,.37-1.08l.11-.38c.5-1.75,1-3.56,1.7-5.31A17.74,17.74,0,0,0,12.85,3.33h0a17.76,17.76,0,0,0-1.29,31.83c1.75,1,3.38,2,5.19,3.21a10.6,10.6,0,0,0,1,.59A16.85,16.85,0,0,1,22.64,36Z"/><path class="cls-3" d="M20.8,47.22l-.18.07a2.35,2.35,0,0,1-2.85-1A2.38,2.38,0,0,1,18.63,43l15.8-9.15a2.87,2.87,0,0,1,.4-.18,2.38,2.38,0,0,1,2,4.3L21,47.11ZM35.37,35.38l0,0L19.54,44.55a.57.57,0,0,0,.48,1l.1,0,15.8-9.15a.58.58,0,0,0-.49-1Z"/><path class="cls-3" d="M22.3,51.29l-.18.07a2.35,2.35,0,0,1-2.85-1,2.39,2.39,0,0,1,.86-3.25l15.8-9.15a2.87,2.87,0,0,1,.4-.18,2.38,2.38,0,0,1,2,4.31l-15.8,9.14ZM36.87,39.45l0,0L21,48.62a.56.56,0,0,0-.27.35.61.61,0,0,0,.05.44.6.6,0,0,0,.7.26l.1-.05,15.8-9.14a.59.59,0,0,0,.21-.8.58.58,0,0,0-.7-.25Z"/><path class="cls-3" d="M23.8,55.36l-.18.08a2.38,2.38,0,0,1-2.85-1,2.4,2.4,0,0,1,.86-3.26L37.43,42l.39-.18a2.4,2.4,0,0,1,2.87,1.05,2.39,2.39,0,0,1-.87,3.26L24,55.25A.91.91,0,0,1,23.8,55.36Zm-1.06-2.79-.2.12a.56.56,0,0,0-.27.35.61.61,0,0,0,.05.44.58.58,0,0,0,.7.26l.1-.05,15.79-9.14a.57.57,0,0,0,.28-.35.56.56,0,0,0-.06-.44.58.58,0,0,0-.7-.26l-.1,0Z"/></g></g></svg>