<svg xmlns="http://www.w3.org/2000/svg" viewBox="0 0 59.69 63.77"><defs><style>.cls-1{fill:#9fbbd1;}.cls-2{fill:#f79175;}.cls-3{fill:#352c22;}.cls-4{fill:#b378d1;}</style></defs><title>Asset 7</title><g id="Layer_2" data-name="Layer 2"><g id="objects_2" data-name="objects 2"><path class="cls-1" d="M51,32.25a3.46,3.46,0,0,0,1.57-2.81c0-2.12-2.24-3.84-5-3.84s-5,1.72-5,3.84a3.46,3.46,0,0,0,1.56,2.81v.85H37.23V27.4H34.84l-.23.34a2.46,2.46,0,0,1-2,1.23,2.4,2.4,0,0,1-1.69-.82,4,4,0,0,1-1.28-3.09,4.1,4.1,0,0,1,1.21-3,2.38,2.38,0,0,1,1.76-.9,2.46,2.46,0,0,1,2,1.23l.23.33h2.39V13.51H29.34v-.85A3.49,3.49,0,0,0,30.9,9.85c0-2.12-2.24-3.85-5-3.85s-5,1.73-5,3.85a3.49,3.49,0,0,0,1.56,2.81v.85H14.54v8.1h-.76A3.47,3.47,0,0,0,11,20c-2.12,0-3.85,2.24-3.85,5S8.86,30,11,30h.08a3.08,3.08,0,0,0-.23,1.86A3.3,3.3,0,0,0,12.35,34L5.06,35.48l1.51,7.66L6,43.25a3.46,3.46,0,0,0-3.05-1c-2.08.41-3.34,3-2.81,5.65s2.66,4.56,4.75,4.15A3.46,3.46,0,0,0,7.31,50l.59-.11,1.52,7.65,22.17-4.39L30.77,49a3.13,3.13,0,0,0,1.89.67,3.46,3.46,0,0,0,2.8-1.56h.76v8.14h7.93v.9a3.47,3.47,0,0,0-1.56,2.81c0,2.12,2.24,3.85,5,3.85s5-1.73,5-3.85A3.46,3.46,0,0,0,51,57.11v-.9h8.22V47.09H55.91l-.23.33a2.54,2.54,0,0,1-2.07,1.24c-1.55,0-2.87-1.85-2.87-4s1.32-4,2.87-4a2.53,2.53,0,0,1,2.07,1.24l.23.33h3.32V33.1H51ZM25.9,29.81c2.19,0,4,1.33,4,2.9a2.51,2.51,0,0,1-1.11,2l-.77.58-.83-4.19-5.3,1.05C22.31,30.83,24,29.81,25.9,29.81ZM36.22,41.2h-.76a3.46,3.46,0,0,0-2.8-1.56c-2.12,0-3.85,2.24-3.85,5l-1.19.24-.16.36a2.55,2.55,0,0,1-1.8,1.62,2.51,2.51,0,0,1-2.17-.7A4.9,4.9,0,0,1,22,43.44c-.42-2.15.52-4.23,2.06-4.53a2.53,2.53,0,0,1,2.29.81l.29.28,2.25-.45-.69-3.49h8Z"/><path class="cls-2" d="M50.73,51.52V49.46h8.21V41.84H56.77a3.28,3.28,0,0,1-2.69,1.57c-2,0-3.62-2.14-3.62-4.78s1.62-4.77,3.62-4.77a3.28,3.28,0,0,1,2.69,1.57h2.17V27.86H50.73v-2a2.88,2.88,0,0,0,1.57-2.41c0-1.71-1.9-3.09-4.25-3.09s-4.24,1.38-4.24,3.09a2.89,2.89,0,0,0,1.56,2.41v2H37.44V36H35.53a2.88,2.88,0,0,0-2.4-1.57c-1.71,0-3.1,1.9-3.1,4.24s1.39,4.25,3.1,4.25a2.88,2.88,0,0,0,2.4-1.57h1.91v8.15h7.93v2.06a2.86,2.86,0,0,0-1.56,2.4c0,1.71,1.9,3.09,4.24,3.09s4.25-1.38,4.25-3.09A2.85,2.85,0,0,0,50.73,51.52Z"/><path class="cls-3" d="M48.05,57.77c-2.75,0-5-1.73-5-3.85a3.49,3.49,0,0,1,1.57-2.81v-.9H36.69V42.07h-.76a3.46,3.46,0,0,1-2.8,1.56c-2.13,0-3.85-2.24-3.85-5s1.72-5,3.85-5a3.46,3.46,0,0,1,2.8,1.56h.76V27.1h7.93v-.85a3.47,3.47,0,0,1-1.57-2.81c0-2.12,2.25-3.84,5-3.84s5,1.72,5,3.84a3.49,3.49,0,0,1-1.57,2.81v.85h8.21v9.08H56.37l-.22-.33a2.54,2.54,0,0,0-2.07-1.24c-1.56,0-2.87,1.85-2.87,4s1.31,4,2.87,4a2.54,2.54,0,0,0,2.07-1.24l.22-.33h3.32v9.12H51.48v.9a3.49,3.49,0,0,1,1.57,2.81C53.05,56,50.81,57.77,48.05,57.77ZM38.2,48.71h7.92v3.23l-.36.22a2.14,2.14,0,0,0-1.2,1.76c0,1.27,1.6,2.34,3.49,2.34s3.5-1.07,3.5-2.34a2.17,2.17,0,0,0-1.2-1.76L50,51.94V48.71h8.21V42.59h-1a4,4,0,0,1-3.07,1.57c-2.41,0-4.38-2.48-4.38-5.52s2-5.53,4.38-5.53a4,4,0,0,1,3.07,1.57h1V28.61H50V25.42l.37-.22a2.14,2.14,0,0,0,1.2-1.76c0-1.27-1.6-2.34-3.5-2.34s-3.49,1.07-3.49,2.34a2.12,2.12,0,0,0,1.2,1.76l.36.22v3.19H38.2v8.1H35.1l-.22-.37a2.14,2.14,0,0,0-1.75-1.2c-1.28,0-2.35,1.6-2.35,3.5s1.07,3.49,2.35,3.49a2.14,2.14,0,0,0,1.75-1.2l.22-.37h3.1Z"/><path class="cls-4" d="M11.45,23.29a2.89,2.89,0,0,0,2.4-1.57h1.91V29.3H23a3.24,3.24,0,0,1-1.42-2.59c0-2,2.16-3.65,4.8-3.65s4.8,1.64,4.8,3.65a3.26,3.26,0,0,1-1.41,2.59H37V22.16H35.71a3.23,3.23,0,0,1-2.64,1.56,3,3,0,0,1-2.16-1,4.68,4.68,0,0,1-1.56-3.68,4.79,4.79,0,0,1,1.39-3.54,3.09,3.09,0,0,1,2.33-1.16,3.2,3.2,0,0,1,2.64,1.56H37V8.26h-7.9v-2a2.87,2.87,0,0,0,1.57-2.4c0-1.71-1.9-3.1-4.25-3.1s-4.24,1.39-4.24,3.1a2.88,2.88,0,0,0,1.56,2.4v2H15.76v8.1H13.85a2.87,2.87,0,0,0-2.4-1.57c-1.71,0-3.1,1.9-3.1,4.25S9.74,23.29,11.45,23.29Z"/><path class="cls-3" d="M37.7,30.06H27.5l1.8-1.36a2.51,2.51,0,0,0,1.11-2c0-1.57-1.85-2.9-4.05-2.9s-4,1.33-4,2.9a2.51,2.51,0,0,0,1.11,2l1.8,1.36H15V22.47h-.76A3.47,3.47,0,0,1,11.45,24C9.32,24,7.6,21.8,7.6,19s1.72-5,3.85-5a3.47,3.47,0,0,1,2.8,1.57H15V7.51h7.93V6.66a3.5,3.5,0,0,1-1.57-2.81c0-2.12,2.25-3.85,5-3.85s5,1.73,5,3.85A3.5,3.5,0,0,1,29.8,6.66v.85h7.9v9.16H35.31l-.23-.33a2.47,2.47,0,0,0-2-1.23,2.37,2.37,0,0,0-1.75.9,4.1,4.1,0,0,0-1.21,3,4,4,0,0,0,1.28,3.09,2.38,2.38,0,0,0,1.68.82,2.47,2.47,0,0,0,2-1.23l.23-.34H37.7Zm-6.28-1.51h4.77V22.91h-.1a3.88,3.88,0,0,1-3,1.56,3.77,3.77,0,0,1-2.69-1.2,5.37,5.37,0,0,1-1.77-4.21A5.55,5.55,0,0,1,30.24,15a3.73,3.73,0,0,1,2.82-1.36,3.89,3.89,0,0,1,3,1.57h.1V9H28.3V5.82l.37-.22a2.14,2.14,0,0,0,1.2-1.75c0-1.27-1.6-2.35-3.5-2.35s-3.49,1.08-3.49,2.35a2.14,2.14,0,0,0,1.2,1.75l.37.22V9H16.52v8.1h-3.1l-.22-.37a2.13,2.13,0,0,0-1.75-1.19c-1.27,0-2.35,1.6-2.35,3.49s1.08,3.49,2.35,3.49a2.12,2.12,0,0,0,1.75-1.2l.22-.36h3.1v7.58h4.79a3.61,3.61,0,0,1-.5-1.84c0-2.43,2.49-4.4,5.55-4.4s5.56,2,5.56,4.4A3.74,3.74,0,0,1,31.42,28.55Z"/><path class="cls-4" d="M31.18,46.54l-1.43-7.23-1.13.22a3.3,3.3,0,0,1-2.35,2.06c-2,.39-4-1.4-4.52-4s.68-5,2.66-5.42a3.3,3.3,0,0,1,2.95,1L28.49,33l-1.38-7L19.43,27.5l-.14-.74a2.91,2.91,0,0,0,1.07-2.66c-.34-1.68-2.47-2.67-4.77-2.21S11.7,24.07,12,25.75a2.88,2.88,0,0,0,2,2.05l.15.74L6.41,30.08l1.51,7.65-1.72.34A2.86,2.86,0,0,0,3.54,37c-1.68.33-2.67,2.47-2.21,4.76s2.18,3.9,3.86,3.57a2.88,2.88,0,0,0,2.05-2L9,43l1.52,7.66Z"/><path class="cls-3" d="M9.89,51.52,8.37,43.87,7.78,44a3.47,3.47,0,0,1-2.45,2.08c-2.08.41-4.2-1.45-4.74-4.15s.73-5.24,2.81-5.65a3.47,3.47,0,0,1,3.05,1L7,37.14,5.52,29.48,12.82,28a3.35,3.35,0,0,1-1.53-2.15,3.48,3.48,0,0,1,1-3,5.9,5.9,0,0,1,3.18-1.7c2.69-.53,5.23.72,5.64,2.81a3.29,3.29,0,0,1-.59,2.56l7.2-1.43,1.68,8.46L27.12,34l-.28-.28a2.55,2.55,0,0,0-2.29-.81c-1.54.3-2.48,2.38-2.06,4.53A4.9,4.9,0,0,0,24,40.15a2.5,2.5,0,0,0,2.16.7,2.57,2.57,0,0,0,1.81-1.62l.16-.36,2.25-.45,1.72,8.71ZM9.55,42.1l1.52,7.65L30.29,46l-1.13-5.76h0A3.82,3.82,0,0,1,23,41.28,6.39,6.39,0,0,1,21,37.74c-.6-3,.86-5.84,3.24-6.31a4,4,0,0,1,3.33.94h0l-1.09-5.51-7.68,1.52-.37-1.89.31-.29a2.13,2.13,0,0,0,.84-1.95c-.25-1.25-2-2-3.88-1.62a4.34,4.34,0,0,0-2.36,1.24,2,2,0,0,0-.61,1.73,2.15,2.15,0,0,0,1.52,1.49l.4.14.37,1.9L7.29,30.67l1.52,7.65-2.88.57-.29-.32a2.12,2.12,0,0,0-1.95-.83c-1.25.25-2,2-1.62,3.88s1.72,3.22,3,3a2.15,2.15,0,0,0,1.49-1.52l.14-.4Z"/></g></g></svg>