<svg xmlns="http://www.w3.org/2000/svg" viewBox="0 0 65.89 71.42"><defs><style>.cls-1{fill:#9fbbd1;}.cls-2{fill:#f79175;}.cls-3{fill:#352c22;}</style></defs><title>Asset 9</title><g id="Layer_2" data-name="Layer 2"><g id="objects_2" data-name="objects 2"><path class="cls-1" d="M32.71,71.42A32.71,32.71,0,1,0,0,38.71,32.76,32.76,0,0,0,32.71,71.42Z"/><circle class="cls-2" cx="33.18" cy="32.71" r="31.71"/><path class="cls-3" d="M21.12,57.6A35.65,35.65,0,0,1,13.53,45c5.06,1.19,10.6,4.7,14.28,7l1.2.75a33.14,33.14,0,0,0,18.1,5,50.28,50.28,0,0,0,6-.39,29.92,29.92,0,0,0,3.2-3c-11,1.82-18.78.69-25.93-3.79l-1.19-.75C25,47.24,18.6,43.21,12.71,42.24c-.05-.18-.11-.36-.16-.55-.35-1.44-.62-2.91-.83-4.39a76.34,76.34,0,0,0,15.54,1.58,81.13,81.13,0,0,0,33.41-7.11c1.39-.63,2.74-1.33,4.07-2.06-.08-.9-.21-1.79-.37-2.66-1.54.87-3.11,1.71-4.74,2.46a78.39,78.39,0,0,1-48.19,5.17,49,49,0,0,1-.06-7.27h.16c6,0,11.6-4.39,17.5-9C36.25,12.71,43.66,6.88,52.8,7.8a32.07,32.07,0,0,0-3.7-2.51c-8.33.7-15.28,6.16-21.6,11.13C22,20.77,16.77,24.89,11.6,24.91A44.32,44.32,0,0,1,17,7.91,29.56,29.56,0,0,1,19.68,4a31.81,31.81,0,0,0-5,3A47.22,47.22,0,0,0,9.12,24.71a8.8,8.8,0,0,1-5.68-3,27.36,27.36,0,0,0-.86,2.7,11.77,11.77,0,0,0,6.32,2.8,52.65,52.65,0,0,0,0,6.88,57.43,57.43,0,0,1-6.27-2l-1.14-.46c0,.38,0,.76,0,1.14s0,1,0,1.55l.22.09A62.32,62.32,0,0,0,9.14,36.7,47.52,47.52,0,0,0,10.08,42a9.72,9.72,0,0,0-6.41,2.29c.32.82.68,1.63,1.07,2.42a7.52,7.52,0,0,1,6-2.18A38.16,38.16,0,0,0,19.3,59.3a34.66,34.66,0,0,0,3.79,3.47A31.68,31.68,0,0,0,30,64.26,32.56,32.56,0,0,1,21.12,57.6Z"/><path class="cls-3" d="M33.18,65.42A32.71,32.71,0,1,1,65.89,32.71,32.75,32.75,0,0,1,33.18,65.42ZM33.18,2A30.72,30.72,0,1,0,63.89,32.71,30.75,30.75,0,0,0,33.18,2Z"/></g></g></svg>