<svg xmlns="http://www.w3.org/2000/svg" viewBox="0 0 64.47 84.44"><defs><style>.cls-1{fill:#9fbbd1;}.cls-2{fill:#f79175;}.cls-3{fill:#352c22;}.cls-4{fill:#5aa1e4;}.cls-5{fill:#166ac3;}.cls-6{fill:#fff;}</style></defs><title>Asset 5</title><g id="Layer_2" data-name="Layer 2"><g id="objects_2" data-name="objects 2"><path class="cls-1" d="M62.92,6.16a115.27,115.27,0,0,1-12.06,8.62l-.16.1c2.8-1.86,3.75-3,4.23-4.87-.06.09-2.25,3-8.49,4.21-.31.06-.61.13-.92.21a27.23,27.23,0,0,0-7.7,3.47c-3.43,2.22-6.2,5-6.82,7.44a29.58,29.58,0,0,0-.91,10.14c-.51-1.66-1.39-3.2-1.42-5,0-1.26.16-3.13.16-3.13-.14.21-.27.4-.41.58h0c-1.39,1.84-3.25,2.92-5.58,9.7-1.36,3.92-1,8.43-.28,11.82-.45-1-1-2.47-1.42-3.67s-.75-2.16-.75-2.16C19.77,49,23.24,54.81,23,55.32a65.19,65.19,0,0,0-2,6.21c-.11.62,1.63,1.18,1.63,1.18-.61-1.84.93-5.88.93-5.88A7.12,7.12,0,0,0,24,54.54a.39.39,0,0,0,0,.1,51.4,51.4,0,0,1,1.85-6.21,116.16,116.16,0,0,1,4.59-10.82s1.33-2.65,3.4-6a64.35,64.35,0,0,1,7-9.67l0,0s0,0,0,0a19.72,19.72,0,0,1,4.37-3.69c2.1-1.21,3.72-2.17,5-3A40.77,40.77,0,0,0,44.1,20,52.18,52.18,0,0,0,32.93,35.86,91.92,91.92,0,0,0,28,46.1h.07a.49.49,0,0,0,0,.11h0a29.85,29.85,0,0,0-1.05,3,43.59,43.59,0,0,0-1.44,5.22c-.1.38-.15.61-.15.61h0a8,8,0,0,0-.17,2.83l.77-3c3-.93,6.72-2.6,8.16-4.69a79.91,79.91,0,0,1,5.35-6.51c-2.57.9-10.07,2.31-11.3,2.54l0-.07c3.87-.51,9.15-1.86,11.41-4.24a100.55,100.55,0,0,1,7.76-6.92c-3.56.66-14.25.94-14.5,1,.25,0,11.31-.73,14.84-2.59,0,0,5.32-6.19,6.26-7.52,0,0-5.31-.92-9.39.28.63-.2,8-2.46,10.45-1.79a27,27,0,0,0,5.12-7.64A30.1,30.1,0,0,0,62.92,6.16Z"/><path class="cls-1" d="M22.47,63.38l-.09,0c-.86-.28-2.27-.91-2.09-2,.1-.52,1.49-5.11,2-6.25a12.86,12.86,0,0,0-.49-1.32c-.88-2.24-2.51-6.39-2.06-10.3a.67.67,0,0,1,.6-.59.66.66,0,0,1,.71.45s.09.28.24.71a19.26,19.26,0,0,1,.93-6.7C24.11,31.86,25.73,30,27,28.55c.31-.35.59-.67.86-1,.13-.18.25-.35.37-.54a.68.68,0,0,1,1.25.42s-.18,1.85-.15,3.06a4,4,0,0,0,0,.49,33.88,33.88,0,0,1,1-5.78c.62-2.44,3.27-5.37,7.1-7.84a27.56,27.56,0,0,1,7.9-3.56c.32-.09.64-.16.95-.22,6-1.18,8-3.84,8.09-4a.68.68,0,0,1,.84-.21.66.66,0,0,1,.35.78,6.83,6.83,0,0,1-.28.87c4.18-2.9,7.15-5.38,7.19-5.41a.65.65,0,0,1,.74-.08.68.68,0,0,1,.37.65,31.07,31.07,0,0,1-2.77,10.67,27.37,27.37,0,0,1-5.26,7.85.65.65,0,0,1-.64.16,7.28,7.28,0,0,0-2.36,0c.93.09,1.53.22,1.59.21a.66.66,0,0,1,.5.4.68.68,0,0,1-.07.65c-1,1.34-6.08,7.31-6.3,7.57a.7.7,0,0,1-.19.15,7.76,7.76,0,0,1-.91.4l.13,0a.67.67,0,0,1,.54,1.19,102.25,102.25,0,0,0-7.69,6.86,7.06,7.06,0,0,1-.69.64.65.65,0,0,1,.63.3.68.68,0,0,1-.06.82,78.92,78.92,0,0,0-5.29,6.44c-1.72,2.5-6,4.15-8.16,4.84L25.92,58a.68.68,0,0,1-1.31,0,8.14,8.14,0,0,1,.13-2.89.53.53,0,0,1,0-.25l.15-.61c.19-.94.46-2,.81-3.19-.44,1.36-.78,2.62-1,3.76a.45.45,0,0,1,0,.11,7.83,7.83,0,0,1-.47,2.15c-.41,1.08-1.37,4.13-.93,5.45a.68.68,0,0,1-.17.69A.65.65,0,0,1,22.47,63.38Zm-.82-1.87.12.09c0-.21,0-.42,0-.64C21.74,61.19,21.69,61.38,21.65,61.51Zm-.19-12.94A34.42,34.42,0,0,0,23,53.34l.34.87a.22.22,0,0,1,.05-.08,53.24,53.24,0,0,1,1.8-5.93,113.55,113.55,0,0,1,4.62-10.89s.25-.51.69-1.33a.58.58,0,0,1-.31.16.69.69,0,0,1-.79-.46c-.15-.49-.33-1-.51-1.45A10.66,10.66,0,0,1,28,30.49c0-.31,0-.67,0-1-1.22,1.38-2.72,3.12-4.53,8.38-1.34,3.86-.88,8.37-.26,11.47a.68.68,0,0,1-.46.78.69.69,0,0,1-.82-.37C21.79,49.38,21.62,49,21.46,48.57Zm7.07-1.8c-.27.67-.57,1.54-.89,2.59A45.16,45.16,0,0,0,26.32,54c2.83-.93,6.1-2.5,7.32-4.27,1.06-1.54,2.68-3.47,3.87-4.85C34.39,45.67,29.9,46.52,28.53,46.77Zm4.78-10.25a86.58,86.58,0,0,0-4.2,8.74c3.78-.59,8.17-1.88,10.08-3.9a81.25,81.25,0,0,1,6-5.48C41.14,36.28,34.87,36.48,33.31,36.52ZM52.15,13a20,20,0,0,1-5.58,1.9l-.89.2a26.66,26.66,0,0,0-7.49,3.39c-3.5,2.26-6,5-6.53,7a28.66,28.66,0,0,0-.9,9.9.54.54,0,0,1,0,.18c.59-1.1,1.46-2.64,2.51-4.37a63.34,63.34,0,0,1,7.12-9.78l.07-.07A20.24,20.24,0,0,1,45,17.53c2.15-1.24,3.58-2.1,4.68-2.8l.28-.18a.72.72,0,0,1,.2-.09.77.77,0,0,1,.16-.15A20.83,20.83,0,0,0,52.15,13ZM32.39,35.41a1.28,1.28,0,0,1-.11.2l.08-.11Zm18-19.54a39.8,39.8,0,0,0-5.86,4.66A51.94,51.94,0,0,0,34,35.1C38.1,34.78,44.8,34,47.36,32.72c.57-.67,3.86-4.5,5.43-6.45a22.05,22.05,0,0,0-7.95.41.68.68,0,0,1-.39-1.3c1.29-.4,7.59-2.3,10.43-1.87a27.88,27.88,0,0,0,4.72-7.2A29.4,29.4,0,0,0,62.09,7.7a117.75,117.75,0,0,1-10.88,7.65l-.12.08h0a.77.77,0,0,1-.19.08.61.61,0,0,1-.17.15Zm-9.53,6,.24.23,0-.05Z"/><path class="cls-1" d="M37.08,62.42l-5.66-1L32,58.16a2.62,2.62,0,0,0-.09-1.25L15.24,54a2.54,2.54,0,0,0-.52,1.14l-.58,3.26-5.66-1a4.68,4.68,0,0,0-5.42,3.79L1,73a4.67,4.67,0,0,0,3.79,5.41l28.61,5a4.68,4.68,0,0,0,5.41-3.79l2.09-11.84A4.68,4.68,0,0,0,37.08,62.42Z"/><path class="cls-1" d="M7.9,60.65a1.35,1.35,0,0,0-1.55,1.09L4.26,73.58a1.34,1.34,0,0,0,1.08,1.55L34,80.18a1.34,1.34,0,0,0,1.55-1.09l2.09-11.84A1.34,1.34,0,0,0,36.5,65.7l-8.95-1.58,1.37-7.74-10.7-1.89-1.37,7.74Z"/><rect class="cls-1" x="24.6" y="61.42" width="10.46" height="20.91" transform="translate(-46.14 88.76) rotate(-79.99)"/><path class="cls-1" d="M33.21,84.35l-28.6-5A5.57,5.57,0,0,1,.09,72.84L2.18,61a5.58,5.58,0,0,1,6.46-4.52l4.77.84.73-4.14,1.78.32-1.05,5.91L8.32,58.25A3.78,3.78,0,0,0,4,61.32L1.86,73.15a3.78,3.78,0,0,0,3.06,4.38l28.6,5a3.79,3.79,0,0,0,4.38-3.06L40,67.68a3.77,3.77,0,0,0-3.06-4.37l-6.56-1.16,1.05-5.92,1.77.32-.73,4.14,4.78.84A5.58,5.58,0,0,1,41.76,68L39.67,79.83A5.58,5.58,0,0,1,33.21,84.35Z"/><path class="cls-1" d="M40,79.89l-22.37-4,2.13-12.07,22.37,3.95ZM19.67,74.48,38.49,77.8,40,69.28,21.17,66Z"/><path class="cls-2" d="M63.8.67A114.37,114.37,0,0,1,51.73,9.29l-.15.1c2.79-1.85,3.74-3,4.23-4.86-.07.09-2.25,3-8.5,4.21L46.39,9a27.23,27.23,0,0,0-7.7,3.47c-3.43,2.22-6.2,5-6.81,7.44A29.33,29.33,0,0,0,31,30c-.51-1.66-1.38-3.2-1.42-5,0-1.26.16-3.13.16-3.13-.13.2-.27.4-.41.58h0c-1.39,1.84-3.25,2.92-5.58,9.69-1.35,3.93-1,8.44-.28,11.83-.45-1-1-2.47-1.42-3.68s-.75-2.15-.75-2.15c-.61,5.33,2.85,11.19,2.56,11.7a65.19,65.19,0,0,0-2,6.21c-.11.62,1.63,1.18,1.63,1.18-.61-1.84.93-5.88.93-5.88a6.86,6.86,0,0,0,.45-2.29.55.55,0,0,1,0,.1,52.18,52.18,0,0,1,1.86-6.22,113.6,113.6,0,0,1,4.59-10.81s1.33-2.65,3.39-6a65.06,65.06,0,0,1,7-9.67s0,0,.05-.05l0,0a19.71,19.71,0,0,1,4.38-3.69c2.09-1.22,3.71-2.18,5-3A40.22,40.22,0,0,0,45,14.56,52.35,52.35,0,0,0,33.8,30.38a92.24,92.24,0,0,0-4.9,10.24H29l0,.1h0c-.34.81-.71,1.87-1.05,3a43.65,43.65,0,0,0-1.44,5.23c-.09.38-.15.61-.15.61h0a7.92,7.92,0,0,0-.17,2.82l.77-3c3-.93,6.73-2.61,8.16-4.69a82.21,82.21,0,0,1,5.35-6.51c-2.56.9-10.06,2.31-11.3,2.54l0-.07c3.88-.51,9.15-1.86,11.41-4.25a102.9,102.9,0,0,1,7.76-6.92c-3.56.66-14.25.95-14.5,1,.25,0,11.31-.74,14.85-2.6,0,0,5.31-6.18,6.25-7.51,0,0-5.31-.92-9.39.28.63-.2,8-2.46,10.46-1.79a27.06,27.06,0,0,0,5.11-7.65A30.19,30.19,0,0,0,63.8.67Z"/><path class="cls-3" d="M23.34,57.9l-.09,0c-.86-.28-2.27-.9-2.08-1.94.09-.52,1.49-5.12,2-6.25-.07-.25-.29-.82-.49-1.32-.88-2.24-2.52-6.39-2.07-10.3a.69.69,0,0,1,.61-.6.68.68,0,0,1,.71.46l.23.71a19.59,19.59,0,0,1,.93-6.71c1.91-5.55,3.53-7.38,4.83-8.86.3-.34.59-.66.85-1,.13-.17.26-.34.38-.53a.67.67,0,0,1,.79-.28.67.67,0,0,1,.45.7s-.17,1.85-.15,3.06a4,4,0,0,0,0,.49,35,35,0,0,1,1-5.79c.62-2.43,3.28-5.36,7.11-7.83a27.82,27.82,0,0,1,7.89-3.57l1-.21c6-1.18,8-3.84,8.08-4a.68.68,0,0,1,1.2.58,8.9,8.9,0,0,1-.28.87C60.35,2.67,63.32.19,63.36.16a.69.69,0,0,1,.75-.09.68.68,0,0,1,.36.65A30.84,30.84,0,0,1,61.7,11.4a27.55,27.55,0,0,1-5.26,7.85.65.65,0,0,1-.64.16,7,7,0,0,0-2.36,0c.93.09,1.54.22,1.59.2a.69.69,0,0,1,.51.41.66.66,0,0,1-.08.65c-1,1.34-6.07,7.31-6.29,7.56a.74.74,0,0,1-.2.16,7.08,7.08,0,0,1-.91.4l.13,0A.67.67,0,0,1,48.73,30,102.25,102.25,0,0,0,41,36.81a8.55,8.55,0,0,1-.69.64.66.66,0,0,1,.63.29.68.68,0,0,1-.06.83S37.39,42.46,35.63,45s-6,4.15-8.16,4.84l-.67,2.64a.68.68,0,0,1-.66.51.66.66,0,0,1-.65-.51,7.68,7.68,0,0,1,.12-2.89.53.53,0,0,1,0-.25l.15-.61c.18-.94.45-2,.8-3.2-.44,1.37-.78,2.63-1,3.77a.49.49,0,0,1,0,.11A7.83,7.83,0,0,1,25,51.57c-.41,1.08-1.36,4.13-.93,5.45a.68.68,0,0,1-.76.88ZM22.53,56l.11.09c0-.21,0-.43,0-.64C22.61,55.71,22.56,55.9,22.53,56Zm-.2-12.94a35.82,35.82,0,0,0,1.58,4.77c.14.34.25.62.34.87a.56.56,0,0,1,.05-.08,55.45,55.45,0,0,1,1.8-5.93c2-5.6,4.6-10.84,4.62-10.89s.26-.51.7-1.33a.65.65,0,0,1-.32.16.67.67,0,0,1-.78-.46c-.15-.49-.34-1-.52-1.45A10.66,10.66,0,0,1,28.87,25c0-.32,0-.67,0-1-1.21,1.38-2.72,3.12-4.53,8.37-1.34,3.87-.88,8.38-.26,11.48a.66.66,0,0,1-.45.77.67.67,0,0,1-.83-.37C22.66,43.9,22.5,43.5,22.33,43.09Zm7.07-1.8c-.27.67-.57,1.54-.89,2.58a45.26,45.26,0,0,0-1.32,4.65c2.83-.94,6.1-2.5,7.33-4.28,1-1.53,2.67-3.46,3.86-4.84C35.26,40.18,30.77,41,29.4,41.29ZM34.18,31A85.57,85.57,0,0,0,30,39.78c3.79-.59,8.18-1.89,10.08-3.9a81.25,81.25,0,0,1,6-5.48C42,30.8,35.75,31,34.18,31ZM53,7.5a20,20,0,0,1-5.58,1.9l-.88.2A26.43,26.43,0,0,0,39.06,13c-3.5,2.26-6,5-6.53,7a28.88,28.88,0,0,0-.9,9.9.54.54,0,0,1,0,.18c.6-1.1,1.47-2.65,2.52-4.37A63.35,63.35,0,0,1,41.26,16a.27.27,0,0,0,.07-.08,20.43,20.43,0,0,1,4.55-3.83c2.15-1.24,3.58-2.1,4.68-2.8l.28-.18A.88.88,0,0,1,51,9a.75.75,0,0,1,.16-.15A20.83,20.83,0,0,0,53,7.5ZM33.27,29.93l-.11.2.07-.11Zm18-19.55a41,41,0,0,0-5.85,4.67A51.6,51.6,0,0,0,34.91,29.62C39,29.3,45.68,28.5,48.23,27.24c.57-.67,3.86-4.5,5.43-6.46a22.09,22.09,0,0,0-7.95.42.68.68,0,0,1-.39-1.3c1.29-.4,7.59-2.3,10.43-1.87a28,28,0,0,0,4.73-7.2A29.38,29.38,0,0,0,63,2.22,118.31,118.31,0,0,1,52.08,9.87L52,9.94l0,0h0a.64.64,0,0,1-.19.08.5.5,0,0,1-.17.15Zm-9.53,6,.25.23,0,0Z"/><path class="cls-4" d="M38,56.94l-5.67-1,.58-3.26a2.63,2.63,0,0,0-.1-1.25l-16.66-3a2.74,2.74,0,0,0-.52,1.15L15,52.89l-5.67-1a4.67,4.67,0,0,0-5.41,3.79L1.85,67.52a4.68,4.68,0,0,0,3.79,5.41l28.6,5a4.68,4.68,0,0,0,5.42-3.79l2.09-11.84A4.69,4.69,0,0,0,38,56.94Z"/><path class="cls-5" d="M8.77,55.17a1.34,1.34,0,0,0-1.55,1.09L5.13,68.1a1.34,1.34,0,0,0,1.09,1.55l28.6,5a1.34,1.34,0,0,0,1.55-1.09l2.09-11.84a1.34,1.34,0,0,0-1.08-1.55l-9-1.58,1.37-7.74L19.09,49l-1.37,7.74Z"/><rect class="cls-6" x="25.48" y="55.94" width="10.46" height="20.91" transform="translate(-40.02 85.09) rotate(-79.99)"/><path class="cls-3" d="M34.08,78.87,5.48,73.82A5.58,5.58,0,0,1,1,67.36L3.05,55.52A5.58,5.58,0,0,1,9.51,51l4.78.84L15,47.7l1.77.32-1,5.91L9.2,52.77a3.78,3.78,0,0,0-4.38,3.06L2.73,67.67a3.79,3.79,0,0,0,3.06,4.38l28.61,5A3.77,3.77,0,0,0,38.77,74L40.86,62.2a3.79,3.79,0,0,0-3.06-4.38l-6.55-1.15,1-5.92,1.78.32-.74,4.14,4.78.84a5.57,5.57,0,0,1,4.52,6.46L40.54,74.35A5.58,5.58,0,0,1,34.08,78.87Z"/><path class="cls-3" d="M40.82,74.41l-22.36-4,2.13-12.07,22.36,4ZM20.54,69l18.82,3.32,1.51-8.52L22.05,60.47Z"/></g></g></svg>