<svg xmlns="http://www.w3.org/2000/svg" viewBox="0 0 72.04 79.25"><defs><style>.cls-1{fill:#9fbbd1;}.cls-2{fill:#166ac3;}.cls-3{fill:#fff;}.cls-4{fill:#eab2b2;}.cls-5{fill:#352c22;}</style></defs><title>Asset 2</title><g id="Layer_2" data-name="Layer 2"><g id="objects"><path class="cls-1" d="M30.14,8.16A6.42,6.42,0,0,0,25.7,6h0a6.36,6.36,0,0,0-4.65,1.62L2.16,24.42a6.43,6.43,0,0,0-.53,9.09L40.38,77.09a6.42,6.42,0,0,0,9.08.53l18.89-16.8a6.33,6.33,0,0,0,1.57-2.1,6.45,6.45,0,0,0-1-7Z"/><path class="cls-2" d="M27.18,1h0a5.4,5.4,0,0,0-3.93,1.37L4.36,19.17a5.44,5.44,0,0,0-.45,7.67L42.66,70.42a5.34,5.34,0,0,0,3.74,1.81,5.4,5.4,0,0,0,3.93-1.36l18.89-16.8a5.42,5.42,0,0,0,.45-7.67L30.92,2.83A5.39,5.39,0,0,0,27.18,1Z"/><path class="cls-3" d="M25.49,5.87H48.08A2.93,2.93,0,0,1,51,8.81V64.44a2.94,2.94,0,0,1-2.94,2.94H25.49a2.93,2.93,0,0,1-2.93-2.93V8.81a2.94,2.94,0,0,1,2.94-2.94Z" transform="translate(-15.04 33.7) rotate(-41.64)"/><path class="cls-4" d="M55.75,54.47a2.28,2.28,0,1,1-3.22-.19A2.29,2.29,0,0,1,55.75,54.47Z"/><path class="cls-4" d="M8.5,26.23,18,37,65.43,52.3l.23-.2A3,3,0,0,0,65.91,48L62,43.55Z"/><path class="cls-4" d="M9.16,20.05l-1.25,1.1A2.93,2.93,0,0,0,7,23.8l52.6,17L54,34.57Z"/><path class="cls-5" d="M67.06,51.45a3.55,3.55,0,0,1-.9,1.21l-16.88,15a3.69,3.69,0,0,1-5.21-.3l-37-41.58a3.69,3.69,0,0,1,.3-5.2l16.89-15h0a3.68,3.68,0,0,1,5.2.3l37,41.57a3.69,3.69,0,0,1,.92,2.67A3.52,3.52,0,0,1,67.06,51.45Zm-59.18-29a2.08,2.08,0,0,0-.19.79,2.14,2.14,0,0,0,.54,1.57l37,41.58a2.2,2.2,0,0,0,3.08.18l16.88-15a2.1,2.1,0,0,0,.73-1.5,2.19,2.19,0,0,0-.55-1.58l-37-41.57A2.18,2.18,0,0,0,25.3,6.7h0l-16.89,15A2.49,2.49,0,0,0,7.88,22.43Z"/><path class="cls-5" d="M71.45,52.72a6.44,6.44,0,0,1-1.56,2.1L51,71.62a6.43,6.43,0,0,1-9.09-.53L3.16,27.51a6.43,6.43,0,0,1,.53-9.09L22.58,1.63A6.38,6.38,0,0,1,27.23,0h0a6.41,6.41,0,0,1,4.43,2.15L70.42,45.74A6.45,6.45,0,0,1,71.45,52.72ZM4,21.38a4.29,4.29,0,0,0-.4,1.6,4.4,4.4,0,0,0,1.11,3.2L43.41,69.75a4.43,4.43,0,0,0,6.25.37l18.89-16.8a4.3,4.3,0,0,0,1.08-1.45,4.43,4.43,0,0,0-.71-4.8L30.17,3.49a4.41,4.41,0,0,0-6.25-.36L5,19.92A4.27,4.27,0,0,0,4,21.38Z"/></g></g></svg>