<svg xmlns="http://www.w3.org/2000/svg" viewBox="0 0 90.64 117.78"><defs><style>.cls-1{fill:#9fbbd1;}.cls-2{fill:#166ac3;}.cls-3{fill:#b378d1;}.cls-4{fill:#352c22;}.cls-5{fill:#f79175;}</style></defs><title>Asset 3</title><g id="Layer_2" data-name="Layer 2"><g id="objects"><path class="cls-1" d="M13.1,12.9H73.94a3.84,3.84,0,0,1,3.84,3.84V106.3a3.84,3.84,0,0,1-3.84,3.84H13.1a.89.89,0,0,1-.89-.89V13.78a.89.89,0,0,1,.89-.89Z" transform="translate(-14.22 13.54) rotate(-14.8)"/><rect class="cls-1" x="12.42" y="49.26" width="65.56" height="26.08" transform="matrix(0.97, -0.26, 0.26, 0.97, -14.42, 13.62)"/><path class="cls-1" d="M26.42,117.78a2.06,2.06,0,0,1-2-1.54L.07,24.11a2.07,2.07,0,0,1,1.47-2.53L59.91,6.15a5.31,5.31,0,0,1,6.5,3.78L89.1,95.79a5.31,5.31,0,0,1-3.78,6.49L27,117.71A1.93,1.93,0,0,1,26.42,117.78ZM2.22,23.67l24.29,91.88,58.25-15.39A3.13,3.13,0,0,0,87,96.35L64.28,10.49a3.11,3.11,0,0,0-3.81-2.22Z"/><rect class="cls-1" x="63.95" y="6.35" width="5.65" height="99.68" rx="0.79" transform="translate(-12.14 18.92) rotate(-14.8)"/><path class="cls-1" d="M77.39,106a2,2,0,0,1-1-.26,1.93,1.93,0,0,1-.91-1.2l-25-94.7a2,2,0,0,1,1.4-2.4l3.78-1a2,2,0,0,1,1.49.2,1.93,1.93,0,0,1,.91,1.2l25,94.7a2,2,0,0,1-1.4,2.4l-3.78,1A2.22,2.22,0,0,1,77.39,106ZM52.65,9.51l24.91,94.25,3.34-.89L56,8.62Z"/><path class="cls-2" d="M14.47,6.93H75.3a3.84,3.84,0,0,1,3.84,3.84v89.56a3.84,3.84,0,0,1-3.84,3.84H14.47a.89.89,0,0,1-.89-.89V7.81a.89.89,0,0,1,.89-.89Z" transform="translate(-12.65 13.69) rotate(-14.8)"/><rect class="cls-3" x="13.79" y="43.29" width="65.56" height="26.08" transform="matrix(0.97, -0.26, 0.26, 0.97, -12.85, 13.77)"/><path class="cls-4" d="M27.78,111.81a2.09,2.09,0,0,1-2-1.54L1.43,18.14A2.08,2.08,0,0,1,2.91,15.6L61.27.18A5.3,5.3,0,0,1,67.77,4L90.46,89.82a5.31,5.31,0,0,1-3.78,6.49L28.31,111.74A1.88,1.88,0,0,1,27.78,111.81ZM3.59,17.7l24.28,91.88L86.12,94.19a3.12,3.12,0,0,0,2.22-3.81L65.65,4.52a3.15,3.15,0,0,0-1.45-1.9,3.1,3.1,0,0,0-2.36-.32Z"/><rect class="cls-5" x="65.31" y="0.38" width="5.65" height="99.68" rx="0.79" transform="matrix(0.97, -0.26, 0.26, 0.97, -10.57, 19.07)"/><path class="cls-4" d="M78.75,100a2,2,0,0,1-1-.26,2,2,0,0,1-.91-1.2l-25-94.7a2,2,0,0,1,1.4-2.4L57,.47a2,2,0,0,1,1.5.2,2,2,0,0,1,.91,1.2l25,94.7a2,2,0,0,1-.2,1.49,2,2,0,0,1-1.19.91l-3.79,1A2.22,2.22,0,0,1,78.75,100ZM54,3.53,78.92,97.78l3.34-.88L57.35,2.65Z"/></g></g></svg>