<svg xmlns="http://www.w3.org/2000/svg" viewBox="0 0 82.38 109.96"><defs><style>.cls-1{fill:#9fbbd1;}.cls-2{fill:#fff;}.cls-3{fill:#5aa1e4;}.cls-4{fill:#166ac3;}.cls-5{fill:#0b5faa;}.cls-6{fill:#b378d1;}.cls-7{fill:#c88bed;}.cls-8{fill:#f79175;}.cls-9{fill:#352c22;}</style></defs><title>Asset 8</title><g id="Layer_2" data-name="Layer 2"><g id="objects_2" data-name="objects 2"><path class="cls-1" d="M20.65,106.47l.6,3.49L65,102.36l-.6-3.48.93-.16-1.13-.94-.08-.51-.43.08-8.28-6.89A36.86,36.86,0,0,0,72,70.52l9.94-1.72-.82-4.69-39,6.77.81,4.69,10-1.74A22.18,22.18,0,1,1,33.22,36.5a23,23,0,0,1,3-.29L38,37.53h0L54.58,49.17,56.11,47l4.82,3.39,7.86-11.16L64,35.84l1.85-2.63L49.29,21.57h0L31.74,9.22,29,13.14,26,11.06,27.3,9.25,22.68,6,14.46,17.67l4.62,3.26,1.27-1.81L23.3,21.2l-2.8,4,0,0A37,37,0,0,0,27.15,94L20.8,104.79l-.43.08.09.51-.74,1.25Z"/><polygon class="cls-2" points="44.03 68.63 43.5 65.55 80.9 59.06 81.43 62.13 71.84 63.8 55.51 66.64 44.03 68.63"/><path class="cls-3" d="M51.44,28.7a8.94,8.94,0,0,0-2.15-12.46L65.15,27.41,63.3,30h0l-6.92,9.82h0L54.85,42,39,30.86A8.93,8.93,0,0,0,51.44,28.7Z"/><path class="cls-3" d="M39,16.2a36.18,36.18,0,0,0-16.41,3.14L22.11,19l4.75-6.75,2.79-4h0l2.76-3.92L49.27,16.22A9,9,0,0,0,39,16.2Z"/><path class="cls-3" d="M39,30.86l-2.11-1.48.47,0A8.74,8.74,0,0,0,39,30.86Z"/><path class="cls-4" d="M28.86,87.52l2.52-4.28a31.47,31.47,0,0,1,4.19-62.3,8.87,8.87,0,0,0-.3,3.79c-.84.07-1.68.18-2.52.32A27.71,27.71,0,1,0,58,71l5.55-1a31.48,31.48,0,0,1-13,11l4,3.29A36.28,36.28,0,0,0,71.84,63.8L55.51,66.64a23,23,0,1,1-22-36.94,23.6,23.6,0,0,1,3.32-.32l.47,0A8.74,8.74,0,0,0,39,30.86h0A8.94,8.94,0,0,0,49.29,16.24h0A9,9,0,0,0,39,16.2,36.2,36.2,0,0,0,28.86,87.52ZM41,28a5.46,5.46,0,1,1,7.6-1.32A5.47,5.47,0,0,1,41,28Z"/><path class="cls-5" d="M42.57,81.67A36.32,36.32,0,0,1,32.13,82l-.75,1.29a31.47,31.47,0,0,1,4.19-62.3,8.87,8.87,0,0,0-.3,3.79c-.84.07-1.68.18-2.52.32A27.71,27.71,0,1,0,58,71l5.55-1a31.48,31.48,0,0,1-13,11l-1.37-1.15A36.23,36.23,0,0,1,42.57,81.67Z"/><path class="cls-6" d="M32.13,82a36.09,36.09,0,0,0,17-2.07L50.5,81l4,3.29,9.47,7.9L42.85,95.87,21.78,99.53l7.08-12,2.52-4.28Z"/><polygon class="cls-7" points="63.92 92.22 64.53 95.7 22.39 103.02 21.78 99.53 42.85 95.87 63.92 92.22"/><polygon class="cls-2" points="26.86 12.23 24.91 15 20.62 11.99 25.36 5.26 29.65 8.27 29.65 8.27 26.86 12.23"/><polygon class="cls-8" points="19.35 13.79 16.06 11.47 23.34 1.14 26.64 3.45 25.36 5.26 20.62 11.99 19.35 13.79"/><polygon class="cls-8" points="63.3 30.04 63.3 30.04 68.12 33.43 61.2 43.26 56.38 39.86 56.38 39.86 63.3 30.04"/><path class="cls-8" d="M41,28a5.46,5.46,0,1,1,7.6-1.32A5.47,5.47,0,0,1,41,28Z"/><path class="cls-9" d="M42.56,64.88l39-6.77.82,4.69-39,6.77ZM80.24,60l-35.8,6.21.26,1.48,35.79-6.22Z"/><path class="cls-9" d="M38.51,31.53l.94-1.33a8.15,8.15,0,0,0,11.33-2h0a8.15,8.15,0,0,0-2-11.33l.94-1.33h0L66.29,27.21l-11.24,16ZM53.22,20a9.79,9.79,0,0,1-1.11,9.17h0a9.75,9.75,0,0,1-8.25,4.13l10.79,7.6L64,27.6Z"/><path class="cls-9" d="M39.5,16.87l-.23.16H39a35.36,35.36,0,0,0-16,3.07l-.43.19L21,19.18l11.24-16L49.74,15.56l-.94,1.33A8.14,8.14,0,0,0,39.5,16.87Zm4.92-3.07L32.61,5.48,23.83,18a36.93,36.93,0,0,1,15-2.57,9.61,9.61,0,0,1,3.66-1.44A9.84,9.84,0,0,1,44.42,13.8Z"/><path class="cls-9" d="M38.51,31.53l.93-1.34A7.86,7.86,0,0,1,38,28.83l-.25-.29H37l-2.63.07,4.12,2.9Z"/><path class="cls-9" d="M50,81.66l1-1.26,3.53,2.94a35.24,35.24,0,0,0,16-18.5L56,67.38A23.81,23.81,0,1,1,33.41,28.9a25.21,25.21,0,0,1,3.44-.34h.86l.25.29a7.86,7.86,0,0,0,1.48,1.36h0a8.13,8.13,0,1,0,0-13.33l-.23.16H39A35.38,35.38,0,0,0,28.46,86.58l2.22-3.76,1.4.83-2.83,4.8-.59-.14A37,37,0,0,1,38.8,15.38a9.76,9.76,0,1,1-.18,16.23l-.11-.08A9.54,9.54,0,0,1,37,30.19h-.1a23.45,23.45,0,0,0-3.2.31A22.18,22.18,0,1,0,54.87,66.13l.2-.24,18-3.12-.43,1.29A36.91,36.91,0,0,1,54.84,85l-.49.26Zm-9.46-53A6.29,6.29,0,0,1,39,19.93a6.28,6.28,0,0,1,8.74-1.52,6.28,6.28,0,0,1-7.22,10.27Zm-.19-7.81a4.65,4.65,0,1,0,3-1.9A4.61,4.61,0,0,0,40.33,20.87Z"/><path class="cls-9" d="M31.7,81.08l.53.06a35.53,35.53,0,0,0,16.61-2l.44-.17L65.8,92.72l-45.61,7.91ZM49,80.81a37.11,37.11,0,0,1-16.4,2L23.38,98.43l38.67-6.72Z"/><path class="cls-9" d="M20.84,98.87l43.74-7.6.89,5.09L21.72,104Zm42.42-5.71-40.54,7,.33,1.88,40.53-7Z"/><path class="cls-9" d="M19.49,12.18l5.68-8.06,5.61,4L25.1,16.14Zm9-3.71-3-2.08-3.8,5.4,2.95,2.08,1.48-2.11Z"/><path class="cls-9" d="M14.93,11.67,23.15,0l4.62,3.25L19.55,14.93Zm8.61-9.4-6.34,9,2,1.38,6.34-9Z"/><path class="cls-9" d="M55.24,40.06,63.1,28.9l6.15,4.33L61.4,44.39Zm8.26-8.89-6,8.5L61,42.12l6-8.49Z"/><path class="cls-9" d="M40.52,28.68h0a6.3,6.3,0,1,1,4.68,1A6.29,6.29,0,0,1,40.52,28.68Zm-.19-7.81a4.65,4.65,0,1,0,6.47-1.12A4.58,4.58,0,0,0,43.34,19,4.63,4.63,0,0,0,40.33,20.87Z"/></g></g></svg>