<?xml version="1.0" encoding="utf-8"?>
<!-- Generator: Adobe Illustrator 24.0.1, SVG Export Plug-In . SVG Version: 6.00 Build 0)  -->
<svg version="1.1" id="Layer_1" xmlns="http://www.w3.org/2000/svg" xmlns:xlink="http://www.w3.org/1999/xlink" x="0px" y="0px"
	 viewBox="0 0 750 500" style="enable-background:new 0 0 750 500;" xml:space="preserve">
<style type="text/css">
	.st0{fill:#E0E0E0;}
	.st1{fill:#FAFAFA;}
	.st2{fill:#263238;}
	.st3{fill:#455A64;}
	.st4{fill:#407BFF;}
	.st5{fill:#F5F5F5;}
	.st6{opacity:0.3;enable-background:new    ;}
	.st7{fill:#FFFFFF;}
	.st8{fill:#FF9A6C;}
	.st9{fill:#EBEBEB;}
	.st10{fill:#AE7461;}
	.st11{fill:#6F4439;}
	.st12{opacity:0.6;}
	.st13{fill:#FFBF9D;}
	.st14{opacity:0.3;}
</style>
<path class="st0" d="M39.6,386.9c-3.7-2.3-7.9-3.8-12.3-4.2c-2-0.2-4.2-0.1-5.8,1.1c-0.3,0.3-0.7,0.6-0.6,1.1
	c0.1,0.3,0.3,0.6,0.6,0.7C26.9,389.3,33.8,389.8,39.6,386.9"/>
<path class="st0" d="M39.3,386.5c-2.8-2.1-5.5-4.4-7.9-7c-2.4-2.6-4.2-5.7-5-9.2c-0.3-1-0.2-2.1,0.4-3.1
	C33.1,372.2,38.1,378.6,39.3,386.5"/>
<path class="st0" d="M39.6,386.8c-0.6-3.4-0.5-7,0.2-10.4c0.7-3.5,2.7-6.5,5.5-8.6c1.1,2.5,0.6,5.5-0.1,8.1c-1.2,4.1-3,8-5.5,11.5"
	/>
<path class="st0" d="M45.7,397.9c-3.7,0.6-7.1,2.4-9.8,5c-2.8,2.6-4.8,5.9-5.6,9.6c3.7-0.2,6.8-2.8,9.1-5.7S43.2,400.7,45.7,397.9"
	/>
<path class="st0" d="M47.1,399.7c-3-7.6-2-16.2,2.8-22.9C52,384.4,51.2,393,47.1,399.7"/>
<path class="st0" d="M55.3,409.4c-7-0.4-13.6,3.3-16.8,9.6c-0.2,0.4-0.4,0.9-0.1,1.3c0.3,0.3,0.7,0.4,1.1,0.3
	c3.3-0.2,6.2-2.2,8.6-4.5S52.7,411.3,55.3,409.4"/>
<path class="st0" d="M55,408.9c-1.8-5.7-1.9-11.7-0.3-17.4c0.6-2.2,1.7-4.6,3.7-5.6c0.2-0.1,0.4-0.1,0.6-0.1
	c0.2,0.1,0.3,0.2,0.4,0.4c0.7,1.6,1,3.3,0.9,5c-0.1,1.7-0.4,3.4-0.8,5.1c-0.7,3.1-1,6.4-2.7,9.1c-0.4,0.6-0.8,1.3-1.1,2
	c-0.3,0.7-0.3,0.9-0.6,1.5"/>
<path class="st0" d="M76.6,412.1c-1.5-6.4,0-13.2,3.9-18.5c0.3-0.4,0.7-0.8,1.1-0.7c0.7,0.1,0.9,1,0.9,1.7
	C82.2,400.9,80.2,406.9,76.6,412.1"/>
<path class="st0" d="M78.6,413.4c7.6,1.8,15.7,0.2,22-4.5c-3.7-1.9-7.9-2.4-11.9-1.5C84.6,408.4,81,410.2,78.6,413.4"/>
<path class="st0" d="M80.2,409.4c4.4-6.8,11.9-11.1,20-11.6c-0.9,3.2-3.6,5.7-6.6,7.2c-3.1,1.4-6.3,2.3-9.6,2.8
	C82.8,408.1,81.1,408.4,80.2,409.4"/>
<path class="st0" d="M77,389.7c1.3-3.8,2.1-7.7,2.6-11.7c0.4-4-0.4-8.1-2.3-11.6c-4,7.4-4.1,16.2-0.3,23.7"/>
<path class="st0" d="M90.1,383.1c4.5-8.2,13.8-14.8,23.1-15.7C109.6,376.4,99.7,383.3,90.1,383.1"/>
<path class="st0" d="M87.2,384.7c6.8,1,12.5,5.4,18.8,8c1.3,0.6,2.8,0.9,4.3,0.8c1.8,0,3.3-1.5,3.3-3.4c0-1-0.5-1.9-1.2-2.5
	c-0.9-0.8-1.9-1.5-3.1-1.9c-6.9-2.9-14.3-2.9-21.5-1.2"/>
<path class="st0" d="M83.3,389.4c1.5,0.4,2.1,1.2,3.3,2.3c4.1,3.5,9,6,14.3,7.3c0.5,0.1,1.3,0.2,1.5-0.3s-0.1-1-0.4-1.3
	c-2.3-2.7-5.3-4.7-8.6-5.8c-3.3-1.2-6.1-2.7-10.1-2.4"/>
<path class="st0" d="M78.9,360.8c5.6,5.2,13.1,7.7,20.7,7c0.3,0,0.7-0.1,0.9-0.3c0.5-0.6-0.1-1.4-0.7-1.9
	C93.7,360.9,86.4,358.9,78.9,360.8"/>
<path class="st0" d="M84.1,358.9c7.4-5.5,17.1-7.1,25.9-4.3c-3.4,3.1-7.7,5-12.3,5.4C93.1,360.5,88.6,360.1,84.1,358.9"/>
<path class="st0" d="M82,345.8c-0.6-6.1-0.2-10.9-0.6-17c0-0.5-0.1-1.1-0.6-1.3c-0.6-0.2-1.2,0.5-1.4,1.2c-1.8,5.7-0.8,12,2.6,16.9"
	/>
<path class="st0" d="M81.6,346.4c4-2.6,7.4-5.9,10.1-9.8c2-2.7,3.7-6,3.2-9.3c-2.8,0.1-5.5,1.4-7.3,3.7c-1.7,2.2-3,4.7-3.7,7.5
	C83.1,341.1,82.6,343.9,81.6,346.4"/>
<path class="st0" d="M91.5,343.7c9.1-3.4,17.4-8.3,24.8-14.6c-3-1.2-6.3-0.5-9.3,0.7c-6.7,2.5-12.3,7.5-15.6,13.8"/>
<path class="st0" d="M84.4,349.8c4.6,0.6,9.2,0.7,13.8,0.1c4.5-0.7,8.7-2.5,12.8-4.3c0.4-0.1,0.7-0.3,0.9-0.7c0.1-0.4,0-0.8-0.3-1.1
	c-0.3-0.3-0.7-0.4-1.1-0.5c-4.6-1.1-9.4-0.8-13.9,0.8C92.3,345.6,88.2,347.5,84.4,349.8"/>
<path class="st0" d="M58.3,361c-3-6.4-3.1-13.7-0.2-20.1c1.9,2.9,2.1,6.6,1.8,10s-1.4,7-1.5,10.4"/>
<path class="st0" d="M45.8,354.8c-7.9-0.1-15.4,3.1-20.8,8.9c3.9,0.5,7.9-0.3,11.4-2.1c3.5-1.8,6.8-4,9.8-6.6"/>
<path class="st0" d="M37.4,352c-3.8-0.3-7.5-0.8-11.1,0.3c-3.7,1.1-6.8,3.7-8.5,7.2c3.6,0.3,7.2-0.4,10.5-2
	C31.5,356,34.5,354.1,37.4,352"/>
<path class="st0" d="M49.8,352.1c-3.4-2.3-7-4.5-10.9-5.5s-8.6-0.3-11.4,2.8c3.2,1.9,7.1,2.1,10.9,2.1s8.3,0,11.9,1.2"/>
<path class="st0" d="M49.9,352.3c-5.9-5.8-8.1-16.1-5.7-24C48.8,335.4,50.8,343.8,49.9,352.3"/>
<path class="st0" d="M66,336c1.1-2.6,1.9-5.3,2.9-7.9c0.9-2.7,2.3-5.1,4.1-7.3c1.8-2.2,4.4-3.5,7.3-3.8c-1.8,8-7,14.9-14.1,18.9"/>
<path class="st0" d="M63.1,339.4c-1.8-2.5-3.9-5.9-6.4-7.8s-5.7-3-8.7-2.3C51.1,334.8,56.7,338.6,63.1,339.4"/>
<path class="st0" d="M63.6,336.2c-1.3-3-2.3-6.1-2.9-9.4c-0.6-3.2-0.1-6.6,1.5-9.5c3.2,6.1,4.3,12.6,1.6,19"/>
<path class="st0" d="M66,317.3c1.8-6,7.3-10.5,13.3-12.5c0.7-0.3,1.5-0.4,2.3-0.4c0.8,0.1,1.5,0.6,1.7,1.4c0.2,1-0.6,2-1.4,2.6
	C77.3,312.5,71.8,315.5,66,317.3"/>
<path class="st0" d="M66.1,312.4c0.2-3.9,0.5-7.8,1.7-11.5s3.7-7.1,7.3-8.8c0.6,3.9-1.1,7.8-3.2,11.2s-4.6,6.6-5.9,10.3"/>
<path class="st0" d="M66,315c-1.5-4.4-1.7-10-4.3-13.8c-1.8-2.7-4.8-4.5-6.4-7.3c-1,2.7-0.8,5.7,0.4,8.3c1.2,2.6,2.8,5,4.9,7
	C62.6,311.3,64.2,312.8,66,315"/>
<path class="st0" d="M66,444.4c-0.1,0-0.2-29.3-0.2-65.5s0.1-65.5,0.2-65.5s0.2,29.3,0.2,65.5S66.1,444.4,66,444.4z"/>
<path class="st0" d="M91.6,356.6c-0.4,0.2-0.7,0.3-1.1,0.4l-3,1c-2.6,0.9-6.1,2.1-9.9,3.7s-7.3,2.9-9.4,4.7
	c-0.8,0.7-1.5,1.5-1.9,2.5c-0.3,0.7-0.3,1.1-0.4,1.1s0-0.1,0-0.3c0-0.3,0.1-0.6,0.2-0.9c0.4-1,1-1.9,1.8-2.6c1.2-1,2.6-1.9,4.1-2.5
	c1.6-0.8,3.4-1.5,5.3-2.3c3.8-1.6,7.4-2.8,10-3.6c1.3-0.4,2.3-0.7,3.1-0.9C90.9,356.7,91.2,356.7,91.6,356.6z"/>
<path class="st0" d="M100,336c-0.1,0.1-0.2,0.2-0.3,0.3l-0.9,0.9l-3.5,3.2l-11.7,10.4c-4.6,4.1-8.5,7.9-11.2,10.9
	c-1.4,1.5-2.4,2.7-3.2,3.5l-0.8,1c-0.1,0.1-0.2,0.2-0.3,0.3c0,0,0.1-0.1,0.3-0.4s0.4-0.6,0.8-1c0.7-0.9,1.7-2.1,3.1-3.6
	c3.5-3.9,7.3-7.5,11.2-11c4.6-4,8.7-7.7,11.8-10.3l3.6-3.1l1-0.8C99.8,336.2,99.9,336.1,100,336z"/>
<path class="st0" d="M78.6,354.9c-0.1,0,0.8-2.3,1.8-5s1.4-5.1,1.5-5.1c-0.1,1.8-0.5,3.5-1.1,5.2c-0.4,1.2-0.9,2.4-1.4,3.5
	C79.2,354,79,354.5,78.6,354.9z"/>
<path class="st0" d="M66,372.7c-0.3-0.2-0.5-0.5-0.7-0.8l-1.8-2.3c-1.5-2-3.6-4.7-6-7.6s-4.5-5.6-6.1-7.5l-1.8-2.3
	c-0.2-0.3-0.5-0.6-0.6-0.9c0.3,0.2,0.5,0.5,0.8,0.8c0.5,0.5,1.1,1.3,1.9,2.2c1.6,1.9,3.8,4.5,6.2,7.5s4.4,5.7,5.9,7.7
	c0.7,1,1.3,1.8,1.7,2.4C65.6,372,65.8,372.3,66,372.7z"/>
<path class="st0" d="M60.4,365.5c-1.1-1.2-1.9-2.8-2.3-4.4c-0.4-1.4-0.6-2.9-0.5-4.4h0.2c-0.1,0.3-0.2,0.5-0.2,0.5s0-0.2,0-0.5h0.2
	c0.1,1.5,0.3,2.9,0.8,4.3C59,362.5,59.7,364,60.4,365.5z"/>
<path class="st0" d="M53.2,356.3c-0.5-0.4-1.1-0.7-1.6-1c-1.5-0.4-3-0.6-4.5-0.4c-1.6,0.1-3.1,0.4-4.6,0.7c-0.6,0.2-1.3,0.3-1.9,0.5
	c0.6-0.3,1.2-0.6,1.8-0.7c1.5-0.5,3.1-0.8,4.6-0.9c1.6-0.2,3.2,0,4.7,0.5C52.3,355.3,52.8,355.8,53.2,356.3z"/>
<path class="st0" d="M51.5,354.1c0,0.1-1-0.4-2.5-0.9c-2-0.7-4.1-1.1-6.3-1.3c-2.1-0.2-4.3,0-6.4,0.3c-1.6,0.3-2.6,0.6-2.6,0.5
	c0.2-0.1,0.4-0.2,0.7-0.3c0.6-0.2,1.3-0.4,1.9-0.5c2.1-0.5,4.3-0.6,6.5-0.5c2.2,0.2,4.3,0.7,6.3,1.4c0.6,0.2,1.2,0.5,1.8,0.8
	C51,353.8,51.2,354,51.5,354.1z"/>
<path class="st0" d="M66,344.8c-0.8-2.1-1.4-4.2-1.8-6.4c-0.6-2.1-1.1-4.3-1.4-6.5c0.7,2.1,1.4,4.2,1.8,6.4
	C65.2,340.4,65.7,342.6,66,344.8z"/>
<path class="st0" d="M66.1,344.8c-0.6-1.3-1.2-2.6-2-3.8c-0.9-1.2-1.9-2.2-3-3.1c0.4,0.1,0.8,0.3,1.2,0.6c0.9,0.6,1.6,1.4,2.2,2.3
	C65.3,341.9,65.9,343.3,66.1,344.8z"/>
<path class="st0" d="M66,428.8c-0.1,0-0.1-0.7-0.5-2c-0.5-1.8-1.2-3.4-2-5.1c-2.8-5.3-6.3-10.2-10.3-14.6c-2.3-2.6-4.6-5.1-6.5-7.5
	c-1.7-2.1-3.3-4.3-4.6-6.7c-0.9-1.6-1.7-3.3-2.3-5c-0.2-0.6-0.4-1.1-0.5-1.4c-0.1-0.2-0.1-0.3-0.1-0.5c0,0,0.3,0.7,0.7,1.9
	c0.7,1.7,1.5,3.3,2.5,4.9c1.4,2.3,2.9,4.5,4.7,6.6c1.9,2.4,4.2,4.9,6.5,7.5c4.1,4.4,7.6,9.4,10.3,14.8c0.8,1.6,1.4,3.4,1.8,5.2
	c0.1,0.5,0.2,1,0.3,1.5C66,428.4,66,428.6,66,428.8z"/>
<path class="st0" d="M89.2,402.6c-0.4,0.3-0.8,0.5-1.2,0.7c-1.1,0.6-2.1,1.3-3.2,2.1c-1.5,1.1-2.9,2.4-4.1,3.8
	c-1.4,1.5-2.9,3.3-4.5,5.2c-3,3.8-5.9,7.2-7.6,9.9c-0.9,1.3-1.5,2.5-1.9,3.3c-0.2,0.4-0.4,0.8-0.7,1.2c0,0,0-0.1,0.1-0.3
	s0.2-0.5,0.4-1c0.5-1.2,1.1-2.3,1.8-3.4c2.3-3.5,4.8-6.8,7.5-10c1.5-1.9,3-3.7,4.5-5.2c1.3-1.4,2.7-2.6,4.2-3.7c1-0.8,2.1-1.4,3.3-2
	c0.4-0.2,0.7-0.3,1-0.4C89,402.7,89,402.7,89.2,402.6z"/>
<path class="st0" d="M89.6,411.1c-0.8,0.2-1.7,0.3-2.6,0.4c-2,0.2-4.1,0.6-6,1.2c-2,0.6-3.8,1.6-5.4,2.9c-1.3,1-1.8,1.8-1.9,1.7
	c0.1-0.2,0.2-0.4,0.4-0.6c0.4-0.5,0.8-1,1.3-1.4c1.6-1.3,3.5-2.4,5.5-3c2-0.6,4.1-1,6.1-1.1C87.9,411.1,88.7,411.1,89.6,411.1z"/>
<path class="st0" d="M74.4,416.3c-0.1-0.1,1-1.8,1.9-4.2s1-4.5,1.2-4.5c0.1,0.5,0.1,0.9,0,1.4c-0.1,1.1-0.4,2.2-0.8,3.2
	c-0.4,1.1-0.9,2.1-1.5,3C75,415.7,74.7,416,74.4,416.3z"/>
<path class="st0" d="M96.6,379.9c-0.1,0.1-0.3,0.2-0.4,0.2l-1.2,0.5c-0.5,0.2-1.2,0.5-1.9,0.9s-1.6,0.8-2.4,1.3l-1.4,0.8
	c-0.5,0.3-1,0.6-1.5,0.9c-1,0.6-2.1,1.4-3.2,2.2c-2.4,1.8-4.6,3.7-6.7,5.8c-2,2.1-3.9,4.4-5.6,6.8c-0.8,1.1-1.5,2.2-2.1,3.2
	c-0.3,0.5-0.6,1-0.9,1.5s-0.5,1-0.7,1.4c-0.5,0.9-0.9,1.8-1.2,2.5s-0.6,1.4-0.8,1.9l-0.5,1.2c-0.1,0.1-0.1,0.3-0.2,0.4
	c0-0.2,0.1-0.3,0.1-0.5c0.1-0.3,0.3-0.7,0.4-1.3c0.2-0.7,0.5-1.3,0.8-2c0.3-0.8,0.7-1.6,1.2-2.5c0.2-0.5,0.5-0.9,0.7-1.4
	s0.6-1,0.9-1.5c0.6-1.1,1.3-2.1,2-3.3c1.7-2.4,3.6-4.7,5.6-6.9c2.1-2.1,4.3-4.1,6.7-5.8c1.1-0.8,2.2-1.5,3.2-2.2
	c0.5-0.3,1-0.6,1.5-0.9l1.4-0.8c0.9-0.5,1.8-0.9,2.5-1.2s1.4-0.6,1.9-0.8l1.3-0.5C96.3,379.9,96.5,379.9,96.6,379.9z"/>
<path class="st0" d="M78.3,392.1c0.2-0.6,0.5-1.1,1-1.5c1.1-1,2.5-1.5,4-1.6c1.5,0,2.9,0.3,4.3,0.8c0.6,0.2,1.1,0.4,1.6,0.8
	c-0.6-0.1-1.2-0.3-1.7-0.5c-1.3-0.5-2.7-0.7-4.2-0.7c-1.4,0-2.8,0.5-3.9,1.4C79.1,391.3,78.7,391.7,78.3,392.1z"/>
<path class="st0" d="M75.6,395c0.5-1.2,0.9-2.5,1.2-3.8c0.1-1.3,0-2.6-0.3-3.9c0.2,0.3,0.4,0.7,0.5,1.1c0.2,0.9,0.3,1.9,0.2,2.9
	c-0.1,1-0.4,1.9-0.8,2.8C76,394.7,75.6,395,75.6,395z"/>
<path class="st0" d="M45.8,433c0.6,11.2,4,22.6,9.2,34.1h22.6c4.9-11.4,8.1-22.8,8.7-34.1H45.8z"/>
<path class="st1" d="M82.5,451.1c0,0.1-7.4,0.2-16.6,0.2s-16.6-0.1-16.6-0.2s7.4-0.2,16.6-0.2S82.5,451,82.5,451.1z"/>
<path class="st1" d="M82,455.2c0,0.1-7,0.2-15.6,0.2s-15.6-0.1-15.6-0.2s7-0.2,15.6-0.2S82,455,82,455.2z"/>
<path class="st1" d="M55.3,440.3c0.3,3.5,0.3,6.9,0,10.4C55,447.3,55,443.8,55.3,440.3z"/>
<path class="st1" d="M67.4,440.3c0.3,3.6,0.3,7.2,0,10.8C67.1,447.5,67.1,443.9,67.4,440.3z"/>
<path class="st1" d="M78.8,440.2c0.3,3.7,0.3,7.3,0,11C78.5,447.6,78.5,443.9,78.8,440.2z"/>
<path class="st1" d="M85.5,440.3c0,0.1-8.7,0.2-19.5,0.2s-19.5-0.1-19.5-0.2s8.7-0.2,19.5-0.2S85.5,440.2,85.5,440.3z"/>
<path class="st2" d="M727.3,466.8c0,0.1-157.8,0.3-352.3,0.3S22.6,467,22.6,466.8s157.7-0.3,352.4-0.3S727.3,466.7,727.3,466.8z"/>
<rect x="265.5" y="86.9" class="st2" width="198.3" height="66.4"/>
<path class="st2" d="M358.4,121.7c0,0-178.3-24.9-182.5-25.7s194.4-40.4,194.4-40.4l194.6,43.6L358.4,121.7z"/>
<path class="st3" d="M463.8,108.9l-0.5-0.3c-0.3-0.2-0.8-0.4-1.4-0.7c-1.2-0.6-3-1.6-5.4-2.6c-6.7-3-13.5-5.5-20.5-7.6
	c-10.4-3.1-21-5.4-31.7-7.1c-13.1-2-26.3-3.2-39.6-3.5c-13.3-0.3-26.5,0.5-39.7,2.4c-10.7,1.6-21.3,3.9-31.7,7
	c-7,2.1-13.9,4.5-20.6,7.4l-3.1,1.4l-2.3,1.1l-1.4,0.7c-0.3,0.2-0.5,0.2-0.5,0.2l0.5-0.3l1.4-0.7l2.3-1.1l3.1-1.4
	c6.7-2.9,13.6-5.5,20.6-7.6c10.4-3.1,21-5.5,31.7-7.1c13.2-1.9,26.4-2.8,39.7-2.5c13.3,0.3,26.5,1.5,39.7,3.6
	c10.7,1.7,21.3,4.1,31.7,7.2c7,2.1,13.9,4.7,20.5,7.7c2.4,1.1,4.1,2,5.3,2.7c0.6,0.3,1,0.6,1.4,0.8L463.8,108.9z"/>
<path class="st4" d="M486.3,91.9c-0.8-5.2-1.4-8.5-3.5-11.7c-2.7-3.8-8-4.7-11.9-2.1l5,1.2c3.8,2.1,4.8,7,5.2,11.4
	c0.8,9.5,0.5,19.1-0.8,28.5c1.7,0.2,4.1-0.3,5.8-0.2C487,110,487.7,101.1,486.3,91.9z"/>
<circle class="st4" cx="483.6" cy="117.1" r="6"/>
<path class="st4" d="M496.6,144.6c-0.1-4.9-0.2-9.9-1.5-14.6s-3.8-9.3-7.9-12l-5.8,0.2c-3.4,0.8-5.7,4.1-6.5,7.4s-0.6,6.9-0.7,10.4
	s-0.7,7.1-2.9,9.8c1.9,0.5,3.7,1.5,5.5,2.1c1.9,0.8,3.9,0.7,5.8-0.1c2.1-1.2,3-3.7,3.7-6.1c0.9,2.2,1,4.6,0.6,6.9
	c1.6-0.2,3.2,0.3,4.8,0.5s3.5-0.1,4.4-1.5C496.5,146.7,496.7,145.6,496.6,144.6z"/>
<rect x="222.9" y="152.6" class="st5" width="294.8" height="26.8"/>
<rect x="435.5" y="152.6" class="st6" width="82.3" height="26.8"/>
<path class="st2" d="M517.8,157.3c0,0.1-66,0.3-147.4,0.3s-147.4-0.1-147.4-0.3s66-0.3,147.4-0.3S517.8,157.1,517.8,157.3z"/>
<path class="st2" d="M517.8,161.8c0,0.1-66,0.3-147.4,0.3s-147.4-0.1-147.4-0.3s66-0.3,147.4-0.3S517.8,161.7,517.8,161.8z"/>
<path class="st2" d="M517.8,166.4c0,0.1-66,0.3-147.4,0.3s-147.4-0.1-147.4-0.3s66-0.3,147.4-0.3S517.8,166.2,517.8,166.4z"/>
<path class="st2" d="M517.8,171c0,0.1-66,0.3-147.4,0.3s-147.4-0.1-147.4-0.3s66-0.3,147.4-0.3S517.8,170.8,517.8,171z"/>
<path class="st2" d="M517.8,175.4c0,0.1-66,0.3-147.4,0.3s-147.4-0.1-147.4-0.3s66-0.3,147.4-0.3S517.8,175.3,517.8,175.4z"/>
<rect x="173.4" y="221.9" class="st3" width="382.2" height="47.7"/>
<path class="st2" d="M471.2,260.2c0-0.2,0-0.4,0-0.5c0-0.4,0-0.9,0-1.5c0-1.4,0-3.3-0.1-5.6c0-4.9-0.1-11.6-0.2-19.6l0.3,0.3h-18.1
	c-0.1,0.1,0.7-0.7,0.4-0.3l0,0v3.8c0,1.3,0,2.5,0,3.7c0,2.5,0,4.8,0,7.1c0,4.6,0,8.8,0,12.6l-0.3-0.3l13.1,0.1l3.7,0.1
	c0.4,0,0.9,0,1.3,0.1c-0.4,0-0.8,0.1-1.2,0.1l-3.6,0.1l-13.3,0.1h-0.3v-0.3c0-3.8,0-8-0.1-12.6c0-2.3,0-4.7,0-7.1v-3.7
	c0-0.6,0-1.3,0-1.9v-1.9l0,0c-0.3,0.3,0.4-0.4,0.4-0.4h18.1h0.3v0.3c-0.1,8-0.1,14.9-0.2,19.8c0,2.3-0.1,4.2-0.1,5.6
	c0,0.6,0,1.1,0,1.5C471.3,259.8,471.3,260,471.2,260.2z"/>
<rect x="496.6" y="229.3" class="st7" width="59" height="32.3"/>
<rect x="488.9" y="221.9" class="st6" width="66.7" height="47.7"/>
<path class="st2" d="M488.6,269.3c-0.2,0-0.4-10.5-0.4-23.5s0.2-23.5,0.4-23.5s0.4,10.5,0.4,23.5S488.8,269.3,488.6,269.3z"/>
<path class="st2" d="M556,237c0,0.2-13.4,0.3-29.9,0.3s-29.9-0.1-29.9-0.3s13.4-0.4,29.9-0.4C542.6,236.6,556,236.8,556,237z"/>
<path class="st2" d="M556,245.5c0,0.2-13.4,0.3-29.9,0.3s-29.9-0.1-29.9-0.3s13.4-0.4,29.9-0.4C542.6,245.1,556,245.3,556,245.5z"/>
<path class="st2" d="M556,254.1c0,0.2-13.4,0.4-29.9,0.4s-29.9-0.2-29.9-0.4s13.4-0.3,29.9-0.3C542.6,253.7,556,253.9,556,254.1z"/>
<rect x="177.6" y="270" class="st8" width="382.2" height="23.5"/>
<rect x="474.3" y="272.9" class="st0" width="85.4" height="17.8"/>
<rect x="469.5" y="270" class="st6" width="90.3" height="23.5"/>
<path class="st2" d="M469.5,293.5c-0.2,0-0.3-5.1-0.3-11.3s0.2-11.3,0.4-11.3s0.3,5.1,0.3,11.3S469.7,293.5,469.5,293.5z"/>
<rect x="205.1" y="279" class="st0" width="230.2" height="5.6"/>
<path class="st2" d="M460.2,293.3c0,0.2-63.3,0.3-141.4,0.3s-141.5-0.1-141.5-0.3s63.3-0.4,141.5-0.4S460.2,293.1,460.2,293.3z"/>
<path class="st2" d="M470.5,293.5c0,0.2-63.3,0.3-141.5,0.3s-141.5-0.1-141.5-0.3s63.3-0.4,141.5-0.4S470.5,293.3,470.5,293.5z"/>
<path class="st2" d="M559.8,269.8c0,0.2-83.3,0.3-186.1,0.3s-186.1-0.1-186.1-0.3s83.3-0.4,186.1-0.4S559.8,269.6,559.8,269.8z"/>
<rect x="147.9" y="419.4" class="st0" width="382.2" height="23.5"/>
<rect x="444.7" y="422.4" class="st0" width="85.4" height="17.8"/>
<rect x="439.9" y="419.4" class="st6" width="90.3" height="23.5"/>
<path class="st2" d="M439.9,443c-0.2,0-0.3-5.1-0.3-11.3s0.2-11.3,0.4-11.3s0.3,5.1,0.3,11.3S440.1,443,439.9,443z"/>
<rect x="175.4" y="428.5" class="st7" width="230.2" height="5.6"/>
<path class="st2" d="M430.6,442.8c0,0.2-63.3,0.4-141.5,0.4s-141.5-0.1-141.5-0.4s63.3-0.3,141.5-0.3S430.6,442.6,430.6,442.8z"/>
<path class="st2" d="M440.8,442.9c0,0.2-63.3,0.4-141.5,0.4s-141.5-0.1-141.5-0.4s63.3-0.3,141.5-0.3S440.8,442.7,440.8,442.9z"/>
<path class="st2" d="M530.1,419.3c0,0.2-83.3,0.4-186.1,0.4s-186.1-0.1-186.1-0.4s83.3-0.3,186.1-0.3S530.1,419.1,530.1,419.3z"/>
<rect x="110" y="443.1" class="st3" width="541.2" height="23.5"/>
<rect x="535.6" y="446" class="st0" width="115.6" height="17.8"/>
<rect x="529" y="443.1" class="st6" width="122.2" height="23.5"/>
<path class="st2" d="M529,466.6c-0.3,0-0.5-5.1-0.4-11.3s0.3-11.3,0.5-11.3s0.5,5.1,0.4,11.3S529.3,466.6,529,466.6z"/>
<rect x="171.2" y="452.1" class="st0" width="311.5" height="5.6"/>
<path class="st2" d="M530.3,466.5c0,0.2-85.7,0.4-191.4,0.4s-191.4-0.1-191.4-0.4s85.7-0.3,191.4-0.3S530.3,466.4,530.3,466.5z"/>
<path class="st2" d="M651.2,442.9c0,0.2-112.8,0.4-251.9,0.4s-251.9-0.1-251.9-0.4s112.8-0.3,251.9-0.3S651.2,442.7,651.2,442.9z"/>
<rect x="420.4" y="300.2" class="st9" width="126.2" height="46.3"/>
<rect x="144.3" y="292.3" class="st3" width="402.3" height="9.7"/>
<rect x="144.3" y="344.4" class="st3" width="402.3" height="9.7"/>
<polygon class="st3" points="424.5,294.6 423.9,352.3 144.3,352.3 144.3,294.6 "/>
<ellipse class="st2" cx="355" cy="326" rx="13.3" ry="14.4"/>
<path class="st0" d="M339.6,326c0-9.1,6.9-16.4,15.4-16.4s15.4,7.4,15.4,16.4s-6.9,16.4-15.3,16.4S339.6,335,339.6,326z M343.8,326
	c0,6.8,5,12.3,11.2,12.3s11.2-5.5,11.2-12.3s-5-12.3-11.2-12.3S343.8,319.2,343.8,326z"/>
<rect x="187.4" y="309.4" class="st7" width="110.9" height="30.9"/>
<path class="st0" d="M281,337.2c0.6,0,1.1-5.5,1.1-12.3s-0.5-12.3-1.1-12.3s-1.1,5.5-1.1,12.3S280.4,337.2,281,337.2z"/>
<path class="st0" d="M266.4,337.2c0.6,0,1.1-5.5,1.1-12.3s-0.5-12.3-1.1-12.3s-1.1,5.5-1.1,12.3S265.8,337.2,266.4,337.2z"/>
<path class="st0" d="M251.7,337.2c0.6,0,1.1-5.5,1.1-12.3s-0.5-12.3-1.1-12.3s-1.1,5.5-1.1,12.3S251.1,337.2,251.7,337.2z"/>
<path class="st0" d="M237.1,337.2c0.6,0,1.1-5.5,1.1-12.3s-0.5-12.3-1.1-12.3s-1.1,5.5-1.1,12.3S236.5,337.2,237.1,337.2z"/>
<path class="st0" d="M222.4,337.2c0.6,0,1.1-5.5,1.1-12.3s-0.5-12.3-1.1-12.3s-1.1,5.5-1.1,12.3S221.8,337.2,222.4,337.2z"/>
<path class="st0" d="M207.7,337.2c0.6,0,1.1-5.5,1.1-12.3s-0.5-12.3-1.1-12.3s-1.1,5.5-1.1,12.3S207.1,337.2,207.7,337.2z"/>
<path class="st2" d="M423.8,345.4c-0.1,0-0.3-9.7-0.3-21.7s0.1-21.7,0.3-21.7s0.3,9.7,0.3,21.7S423.9,345.4,423.8,345.4z"/>
<path class="st2" d="M544.3,309.3c0,0.1-26.8,0.3-59.9,0.3s-59.9-0.1-59.9-0.3s26.8-0.3,59.9-0.3S544.3,309.1,544.3,309.3z"/>
<path class="st2" d="M544.3,316.3c0,0.1-26.8,0.3-59.9,0.3s-59.9-0.1-59.9-0.3s26.8-0.3,59.9-0.3S544.3,316.1,544.3,316.3z"/>
<path class="st2" d="M544.3,323.3c0,0.1-26.8,0.3-59.9,0.3s-59.9-0.1-59.9-0.3s26.8-0.3,59.9-0.3S544.3,323.1,544.3,323.3z"/>
<path class="st2" d="M544.3,330.3c0,0.1-26.8,0.3-59.9,0.3s-59.9-0.1-59.9-0.3s26.8-0.3,59.9-0.3S544.3,330.2,544.3,330.3z"/>
<path class="st2" d="M544.3,337.3c0,0.1-26.8,0.3-59.9,0.3s-59.9-0.1-59.9-0.3s26.8-0.3,59.9-0.3S544.3,337.2,544.3,337.3z"/>
<rect x="416.4" y="292.1" class="st6" width="130.3" height="62"/>
<rect x="212.2" y="179.3" class="st4" width="325.7" height="42.7"/>
<rect x="466" y="185.4" class="st5" width="71.9" height="30.3"/>
<rect x="458.1" y="179.3" class="st6" width="79.9" height="42.7"/>
<path class="st2" d="M436.2,212.6c0,0,0-0.4,0-1.2s0-1.9,0-3.4c0-3,0-7.5-0.1-13.2l0.1,0.1l-205.4,0.1l0,0l0.3-0.3v17.9l-0.3-0.3
	l145.9,0.1l43.6,0.1h11.8h3.1L436.2,212.6l-0.9-0.1h-3h-11.8l-43.5,0.1l-146.1,0.1h-0.3v-18.2h0.3l205.4,0.1h0.1v0.1
	c0,5.8,0,10.3-0.1,13.3c0,1.5,0,2.6,0,3.4S436.2,212.6,436.2,212.6z"/>
<path class="st2" d="M458.4,221.7c-0.2,0-0.3-9.6-0.3-21.4s0.1-21.4,0.3-21.4s0.3,9.6,0.3,21.4S458.5,221.7,458.4,221.7z"/>
<rect x="132.3" y="353.1" class="st4" width="472.5" height="65.9"/>
<rect x="132.3" y="361.4" class="st5" width="464.8" height="49.2"/>
<path class="st2" d="M597.1,372.1c0,0-0.4,0-1.2,0h-3.5l-13.6,0.1l-49.8,0.1l-164.5,0.1l-164.5-0.1l-49.8-0.1l-13.6-0.1H133
	c-0.8,0-1.2,0-1.2,0h1.2h3.5l13.6-0.1l49.9-0.1l164.5-0.1l164.5,0.1l49.8,0.1l13.6,0.1h3.5H597.1z"/>
<path class="st2" d="M597.1,385.3c0,0-0.4,0-1.2,0h-3.5l-13.6,0.1l-49.8,0.1l-164.5,0.1l-164.5-0.1l-49.8-0.1l-13.6-0.1H133
	c-0.8,0-1.2,0-1.2,0h1.2h3.5l13.6-0.1l49.9-0.1l164.5-0.1l164.5,0.1l49.8,0.1l13.6,0.1h3.5H597.1z"/>
<path class="st2" d="M597.1,398.4h-1.2h-3.5l-13.6,0.1l-49.8,0.1l-164.5,0.1l-164.5-0.1l-49.8-0.1l-13.6-0.1H133h-1.2
	c0,0,0.4,0,1.2,0h3.5l13.6-0.1l49.9-0.1l164.5-0.1l164.5,0.1l49.8,0.1l13.6,0.1h3.5C596.7,398.4,597.1,398.4,597.1,398.4z"/>
<rect x="474.4" y="353.1" class="st6" width="130.3" height="65.9"/>
<path class="st3" d="M555.4,238.3c0,0,0.7,0.2,1.4,1.2c0.9,1.4,0.9,3.3-0.1,4.7l-0.1-0.4c1.2,0.6,2,1.9,1.8,3.3
	c-0.1,1.4-0.9,2.7-2.1,3.4c-1,0.6-2.1,0.9-3.2,0.9c-0.7,0-1.5-0.1-2.2-0.2c-0.5-0.1-0.8-0.1-0.8-0.2s1.2,0.1,3,0
	c1.1,0,2.1-0.4,3-0.9c1.1-0.7,1.8-1.8,1.9-3.1c0.1-1.2-0.5-2.3-1.5-2.8l-0.3-0.1l0.2-0.3c0.8-1.3,0.9-2.9,0.2-4.2
	C556.3,239.2,555.9,238.7,555.4,238.3z"/>
<path class="st7" d="M603.6,262l6.2-0.4c10.5,7.8,25.3,5.6,33.1-4.8c7.8-10.5,5.6-25.3-4.8-33.1c-10.5-7.8-25.3-5.6-33.1,4.8
	c-5.9,7.9-6.3,18.6-0.9,26.9l0,0L603.6,262z"/>
<path class="st2" d="M603.6,262c0-0.1,0-0.3,0-0.4c0-0.3,0-0.7,0-1.3c0-1.2,0.1-2.8,0.2-5c0-0.1,0.1-0.1,0.1-0.1c0,0,0,0,0,0
	c0,0,0,0,0.1,0l0,0l-0.2,0.1c-2.1-3.2-3.4-6.9-3.8-10.8c-0.2-2.5,0-5.1,0.5-7.5c0.7-2.8,1.8-5.5,3.5-7.9c1.8-2.6,4.1-4.9,6.8-6.6
	c2.9-1.9,6.2-3.1,9.6-3.6c3.7-0.5,7.4-0.2,10.9,1c7.5,2.5,13.2,8.6,15.4,16.2c1,3.6,1.1,7.4,0.4,11c-0.7,3.4-2.1,6.7-4.2,9.5
	c-3.7,5-9.1,8.4-15.2,9.4l-2,0.2c-0.7,0.1-1.3,0-1.9,0.1c-1.2,0-2.4-0.1-3.7-0.3c-3.8-0.6-7.4-2.1-10.5-4.5h0.1l-4.6,0.3L604,262
	H603.6l0.4,0l1.2-0.1l4.5-0.4c0,0,0.1,0,0.1,0c3.1,2.2,6.6,3.7,10.4,4.3c1.2,0.2,2.4,0.3,3.6,0.3c0.6,0,1.3,0,1.9-0.1l2-0.2
	c6-1,11.3-4.4,14.9-9.3c2-2.7,3.5-5.9,4.1-9.3c0.7-3.6,0.5-7.3-0.4-10.8c-2.1-7.4-7.7-13.4-15-15.9c-3.4-1.1-7.1-1.5-10.6-1
	c-3.4,0.5-6.6,1.6-9.4,3.5c-2.6,1.7-4.9,3.9-6.7,6.5c-1.6,2.3-2.8,4.9-3.5,7.7c-0.6,2.4-0.8,4.9-0.6,7.4c0.3,3.8,1.5,7.5,3.6,10.7
	c0,0,0,0.1,0,0.2c0,0-0.1,0-0.1,0l0,0l0.2-0.1c-0.2,2.1-0.3,3.7-0.4,4.9c0,0.5-0.1,1-0.1,1.3S603.6,262,603.6,262z"/>
<path class="st2" d="M618.7,243.6c0,1.4-1.1,2.6-2.6,2.6s-2.6-1.1-2.6-2.6c0-1.4,1.1-2.6,2.6-2.6c0,0,0,0,0,0
	C617.5,241,618.7,242.2,618.7,243.6L618.7,243.6z"/>
<path class="st2" d="M627.4,243.6c0,1.4-1.1,2.6-2.6,2.6s-2.6-1.1-2.6-2.6c0-1.4,1.1-2.6,2.6-2.6c0,0,0,0,0,0
	C626.2,241,627.4,242.2,627.4,243.6L627.4,243.6z"/>
<path class="st2" d="M635.8,243.6c0,1.4-1.1,2.6-2.6,2.6s-2.6-1.1-2.6-2.6c0-1.4,1.1-2.6,2.6-2.6c0,0,0,0,0,0
	C634.7,241,635.8,242.2,635.8,243.6L635.8,243.6z"/>
<path class="st7" d="M144.2,189.5l-6.2-0.4c-10.5,7.8-25.3,5.6-33.1-4.8s-5.6-25.3,4.8-33.1c10.5-7.8,25.3-5.6,33.1,4.8
	c5.9,7.9,6.3,18.6,0.9,26.9l0,0L144.2,189.5z"/>
<path class="st2" d="M144.2,189.5c0,0,0-0.1,0-0.4s0-0.7-0.1-1.3c0-1.2-0.1-2.8-0.2-5c0-0.1,0-0.1-0.1-0.1l0,0c0,0-0.1,0-0.1,0l0,0
	l0.2,0.1c2.1-3.2,3.4-7,3.7-10.8c0.5-5.4-0.9-10.9-4-15.4c-1.8-2.6-4.1-4.9-6.8-6.6c-2.9-1.9-6.2-3.1-9.6-3.6
	c-3.7-0.5-7.4-0.1-10.9,1c-7.5,2.5-13.2,8.6-15.4,16.2c-1,3.6-1.1,7.4-0.4,11c0.7,3.4,2.1,6.7,4.2,9.5c1.9,2.6,4.3,4.8,7.1,6.4
	c2.5,1.5,5.3,2.5,8.1,3l2,0.2c0.7,0.1,1.3,0,1.9,0.1c1.2,0,2.5-0.1,3.7-0.3c3.8-0.6,7.4-2.1,10.4-4.4h-0.1l4.6,0.3h1.2L144.2,189.5
	c-0.2-0.1-0.3-0.1-0.5-0.1l-1.2-0.1L138,189h-0.1c-3.1,2.2-6.6,3.7-10.4,4.3c-1.2,0.2-2.4,0.3-3.6,0.3c-0.6,0-1.3,0-1.9-0.1l-2-0.3
	c-2.8-0.5-5.5-1.5-8-2.9c-2.7-1.6-5.1-3.8-7-6.3c-2-2.7-3.5-5.9-4.1-9.3c-0.7-3.6-0.5-7.3,0.4-10.8c2.1-7.4,7.7-13.4,15-15.9
	c3.4-1.1,7.1-1.5,10.6-1c3.4,0.5,6.6,1.7,9.4,3.5c2.6,1.7,4.9,3.9,6.7,6.5c1.6,2.3,2.8,5,3.4,7.7c0.6,2.4,0.8,4.9,0.6,7.4
	c-0.3,3.8-1.5,7.5-3.6,10.7c0,0,0,0.1,0,0.2c0,0,0.1,0,0.1,0l0,0l-0.2-0.1c0.1,2.1,0.3,3.8,0.4,4.9c0,0.5,0.1,1,0.1,1.3
	C144,189.2,144.1,189.4,144.2,189.5z"/>
<path class="st2" d="M129.1,171.1c0,1.4,1.1,2.6,2.6,2.6s2.6-1.1,2.6-2.6c0-1.4-1.1-2.6-2.6-2.6c0,0,0,0,0,0
	C130.3,168.5,129.1,169.7,129.1,171.1z"/>
<path class="st2" d="M120.4,171.1c0,1.4,1.1,2.6,2.6,2.6c1.4,0,2.6-1.1,2.6-2.6c0-1.4-1.1-2.6-2.6-2.6c0,0,0,0,0,0
	C121.6,168.5,120.4,169.7,120.4,171.1z"/>
<path class="st2" d="M112,171.1c0,1.4,1.1,2.6,2.6,2.6c1.4,0,2.6-1.1,2.6-2.6c0-1.4-1.1-2.6-2.6-2.6c0,0,0,0,0,0
	C113.2,168.5,112,169.7,112,171.1z"/>
<path class="st2" d="M583.3,257.7c0.9-1,1.3-2.3,1.3-3.6c-0.1-1.8-1-2.5-2.4-3.6l0,0c0.7-1.5,1.6-3.8,0.8-5.2
	c-1-1.6-2.7-2.7-4.6-2.7c0.5-2.9-3.1-5.5-6.2-5.7c-2.3-0.1-4.6-0.8-7,2.4c0,0-0.7-2.5-5.1-1.9c-2.2,0.3-4.6,2.3-4.8,4.5
	c-1.2-2.2-4-2.6-6.4-1.7s-4,2.9-3.4,5.3c-2-0.1-3.8,0.9-4.9,2.6c-1,1.7-1,3.8,0,5.5c-2,0.7-3,2.9-2.3,4.9c0.4,1.1,1.3,2,2.4,2.4
	l36.8,2.4l0,0l1.8,1.3c1.9,0.6,4-0.5,4.6-2.4C585,260.1,583.8,258.8,583.3,257.7z"/>
<path class="st10" d="M580.1,265.3c-0.1-10.3-8.1-18.8-18.4-19.5l-1-0.1c-11.1-0.2-17.5,9-17.5,19.9l-1.3,38.6l1.2,2.5l16.7,25.3
	l6.9-20.7l1.1-9.8c0,0,10.8-0.8,11.8-11.3C580,285.3,580.1,274.8,580.1,265.3z"/>
<path class="st11" d="M567.8,301.6c-4.9-0.4-9.6-2.2-13.5-5.1c0,0,2.7,7.8,13.3,7.7L567.8,301.6z"/>
<path class="st2" d="M576,275.1c-0.1,0.8-0.8,1.4-1.6,1.4c-0.8,0-1.4-0.6-1.5-1.4c0,0,0,0,0-0.1c0.1-0.8,0.8-1.4,1.6-1.4
	C575.3,273.6,576,274.3,576,275.1C576,275.1,576,275.1,576,275.1z"/>
<path class="st2" d="M577.5,270.8c-0.2,0.2-1.3-0.7-2.9-0.9s-2.9,0.6-3.1,0.4s0.1-0.4,0.7-0.8c0.8-0.4,1.6-0.6,2.5-0.5
	c0.8,0.1,1.7,0.4,2.3,0.9C577.4,270.3,577.6,270.7,577.5,270.8z"/>
<path class="st2" d="M562.1,274.4c-0.1,0.8-0.8,1.4-1.6,1.4c-0.8,0-1.4-0.6-1.5-1.4c0,0,0,0,0-0.1c0.1-0.8,0.8-1.4,1.6-1.4
	C561.5,272.9,562.1,273.5,562.1,274.4C562.1,274.3,562.1,274.4,562.1,274.4z"/>
<path class="st2" d="M561.8,269.4c-0.2,0.2-1.3-0.7-2.9-0.9s-2.9,0.6-3.1,0.4s0.1-0.4,0.7-0.8c0.7-0.4,1.6-0.6,2.5-0.5
	c0.9,0.1,1.7,0.4,2.3,0.9C561.8,268.9,561.9,269.3,561.8,269.4z"/>
<path class="st2" d="M566.3,281.7c0.9-0.2,1.8-0.3,2.7-0.3c0.4,0,0.8-0.1,0.9-0.3c0.1-0.4,0-0.9-0.2-1.2c-0.3-1-0.6-2.1-1-3.2
	c-1.4-4.6-2.3-8.4-2.1-8.4s1.4,3.6,2.8,8.2l0.9,3.2c0.2,0.5,0.3,1.1,0.1,1.6c-0.1,0.3-0.4,0.5-0.7,0.5c-0.2,0-0.5,0-0.7,0
	C568,281.9,567.1,281.9,566.3,281.7z"/>
<path class="st2" d="M562.2,264.8c-0.2,0.4-1.6-0.1-3.3-0.2s-3.2,0.1-3.3-0.3c-0.1-0.2,0.3-0.6,0.9-0.9c0.8-0.4,1.7-0.5,2.6-0.5
	c0.9,0.1,1.7,0.3,2.5,0.8C562,264.2,562.3,264.6,562.2,264.8z"/>
<path class="st2" d="M577.4,266.3c-0.3,0.4-1.4,0-2.8,0s-2.5,0.3-2.8-0.1c-0.1-0.2,0.1-0.5,0.6-0.9c1.4-0.9,3.1-0.8,4.5,0.1
	C577.4,265.8,577.6,266.2,577.4,266.3z"/>
<path class="st10" d="M544.1,276c0.1-1.6-1.2-2.9-2.8-3c-0.1,0-0.1,0-0.2,0c-2,0-4.3,1-4.5,5c-0.3,7.2,7.1,6,7.1,5.8
	S544,279,544.1,276z"/>
<path class="st11" d="M542.3,281.1c0,0-0.1,0.1-0.3,0.2c-0.3,0.1-0.7,0.1-1,0c-0.9-0.6-1.4-1.7-1.3-2.8c0-0.6,0.2-1.2,0.4-1.8
	c0.2-0.5,0.5-0.8,1-0.9c0.3-0.1,0.6,0.1,0.7,0.4c0.1,0.2,0,0.4,0.1,0.4s0.2-0.1,0.1-0.4c0-0.2-0.1-0.3-0.3-0.5
	c-0.2-0.2-0.4-0.2-0.7-0.2c-0.6,0.1-1.1,0.5-1.4,1c-0.3,0.6-0.5,1.3-0.5,2c-0.1,1.3,0.5,2.6,1.7,3.2c0.4,0.1,0.8,0.1,1.2-0.1
	C542.3,281.3,542.4,281.1,542.3,281.1z"/>
<path class="st11" d="M562,284c-0.1-0.1-0.3-0.2-0.5-0.1c-0.1,0.1-0.3,0.2-0.3,0.3c-0.6,1.1-0.6,2.4,0.1,3.5l0,0
	c0.8,1.1,2.3,1.4,3.4,0.7c0.3-0.2,0.6-0.5,0.7-0.8l0.7-1.1L562,284z"/>
<path class="st2" d="M565,288.1c0.1,0-0.6,0.7-1.9,0.7c-0.4,0-0.7-0.1-1-0.3c-0.4-0.2-0.7-0.5-0.9-0.8c-0.4-0.8-0.6-1.8-0.5-2.7
	c0-0.2,0.1-0.5,0.1-0.7c0.1-0.3,0.2-0.5,0.5-0.7c0.3-0.1,0.6-0.1,0.8,0.1l0.5,0.3l1.8,1.2c0.6,0.3,1.1,0.7,1.6,1.2
	c-0.6-0.2-1.2-0.5-1.8-0.9l-1.9-1.1c-0.3-0.2-0.8-0.5-0.9-0.4s-0.3,0.6-0.4,1c-0.1,0.8,0,1.7,0.4,2.4c0.2,0.3,0.4,0.5,0.8,0.7
	c0.3,0.2,0.6,0.3,0.9,0.3C563.8,288.5,564.4,288.4,565,288.1z"/>
<path class="st2" d="M565.3,272c-0.1,0-0.1-0.6-0.4-1.6c-0.5-1.4-1.4-2.6-2.6-3.5c-1.8-1.2-4.2-1.5-6.2-0.6c-1.2,0.5-2.3,1.3-3,2.4
	c-1.6,2.3-1.5,5.4,0.3,7.6c0.8,1,1.9,1.7,3.1,2.1c3.5,1.1,7.3-0.8,8.4-4.3c0-0.1,0.1-0.3,0.1-0.4C565.3,272.6,565.2,272,565.3,272
	c0,0.1,0,0.3,0,0.4c0,0.4,0,0.8-0.1,1.3c-0.3,1.5-1.1,2.9-2.3,3.9c-3,2.5-7.4,2-9.9-1c-2.4-2.9-1.9-7.3,1-9.7
	c0.6-0.5,1.2-0.8,1.9-1.1c2.2-0.9,4.7-0.6,6.6,0.8c1.3,0.9,2.2,2.2,2.6,3.7c0.1,0.4,0.2,0.8,0.2,1.2
	C565.3,271.7,565.3,271.8,565.3,272z"/>
<path class="st2" d="M582.4,273.5c0,0,0-0.6-0.4-1.6c-1.2-3.5-5-5.4-8.5-4.2c-0.1,0-0.2,0.1-0.4,0.1c-1.2,0.5-2.2,1.3-3,2.4
	c-1.6,2.3-1.5,5.4,0.3,7.6c0.8,1,1.9,1.7,3.1,2.1c3.5,1.1,7.3-0.8,8.4-4.3c0-0.1,0.1-0.3,0.1-0.4
	C582.4,274.1,582.4,273.5,582.4,273.5c0,0.1,0.1,0.3,0,0.4c0,0.4,0,0.8-0.1,1.2c-0.3,1.5-1.1,2.9-2.4,3.9c-3,2.5-7.4,2-9.9-1
	c-2.4-3-1.9-7.3,1.1-9.6c0.6-0.4,1.2-0.8,1.8-1c2.2-0.9,4.7-0.6,6.6,0.8c1.3,0.9,2.2,2.2,2.6,3.7c0.1,0.4,0.2,0.8,0.2,1.2
	C582.4,273.2,582.4,273.3,582.4,273.5z"/>
<path class="st2" d="M569,273.1c-0.1,0.1-0.7-0.8-1.8-1s-1.9,0.3-2,0.2s0.1-0.3,0.5-0.5c0.5-0.3,1.1-0.4,1.6-0.2
	c0.6,0.1,1.1,0.4,1.4,0.9C569,272.9,569,273.1,569,273.1z"/>
<path class="st2" d="M551.7,271.6c-1.6,0.6-3.2,0.9-4.8,1.2c-1.6,0.4-3.2,0.6-4.9,0.7C545.2,272.5,548.4,271.9,551.7,271.6
	L551.7,271.6z"/>
<path class="st2" d="M575.9,250.6c0.2-0.2,0.3-0.4,0.4-0.6c0.1-0.5,0-1.1-0.2-1.6c-1-2.1-3.5-3.2-5.8-2.5c-0.5-2.8-2.6-5-5.4-5.7
	c-2.8-0.4-5.6,0.9-7,3.3c-1.5-1.7-3.8-2.5-6-2.2c-2.3,0.4-4.3,2-5.2,4.1c-1.9-0.6-4.1,0-5.4,1.5c-1.3,1.7-1.7,3.9-0.9,5.9
	c-1.3,0.5-2.2,1.8-2.3,3.3c-0.2,1.7,0.6,4.2,2.2,3.9c-0.7,1.2,0.2,3.3,1,4.2c0,2.2,0.2,3.6,0.2,5.6c0.1,4.1,2.1,3.8,2.1,3.8
	c0.3,8.3,3.5,7,6-8.6c0.5-0.3,0.8-0.7,0.9-1.3c0.1-0.6,0.1-1.3,0.5-1.7c0.2-0.2,0.4-0.3,0.6-0.3c1.3,0.5,2.7,0.6,4,0.1
	c1.4-0.6,2.5-1.7,2.9-3.1c0.7,0.7,1.8,0.8,2.6,0.2c0.1-0.1,0.2-0.1,0.3-0.2c1.4-0.5,2.6-1.6,3.2-3c0.2-0.1,0.3-0.2,0.5-0.2
	c1.1,0.9,2.6,1,3.8,0.2c1.3-0.9,2.1-2.3,2.2-3.8c0-0.2,0-0.5,0-0.8c1-0.2,2,0,2.9,0.6c3.1,1.8,5.4,8.6,5.4,8.6
	C580,256.6,578.3,253.3,575.9,250.6z"/>
<path class="st2" d="M580.8,385.6c0,0,46.3-5.2,53.9-6.4c14.5-2.4,29-0.1,35.1,12.1c2.8,5.6-0.7,16.3-9.2,24.3
	c-6.3,6-37.8,37.2-37.8,37.2l-27-22.1l33.4-25.5l-64.7,8.9L580.8,385.6z"/>
<path class="st2" d="M628.9,437.6l-17.3,18c0,0,13.1,23.6,10.2,27.3l-37.3-32.4l25.8-29.2L628.9,437.6z"/>
<path class="st0" d="M601.4,444c-0.9-0.4-2-0.1-2.6,0.8c-0.5,0.9-0.1,2,0.8,2.5c1,0.5,2.1,0.1,2.7-0.8c0.4-1-0.1-2.1-1.1-2.5"/>
<path class="st0" d="M584.4,450.5l2.6-2.9l35,32.3c0.3,1,0.2,2.1-0.3,3L584.4,450.5z"/>
<path class="st7" d="M612.3,455.9c-0.2,0.2-1.2-0.5-2.6-0.8s-2.5,0.1-2.7-0.1s1.1-1,2.8-0.7S612.5,455.8,612.3,455.9z"/>
<path class="st7" d="M614.8,460.9c-0.1,0.2-1.2-0.2-2.5,0s-2.2,0.9-2.3,0.7s0.6-1.3,2.2-1.5S615,460.7,614.8,460.9z"/>
<path class="st7" d="M613,467.3c-0.2-0.1,0.3-1.2,1.7-1.8s2.5-0.2,2.5,0s-1,0.3-2.1,0.8S613.2,467.5,613,467.3z"/>
<path class="st7" d="M615.8,451.4c-0.2,0.1-0.8-0.9-1.9-1.7s-2.2-1.2-2.1-1.4s1.4-0.2,2.7,0.8S616,451.3,615.8,451.4z"/>
<path class="st3" d="M641.4,434.4c-0.1,0.1-0.2,0.3-0.3,0.4l-1,1.1l-3.9,3.9L623,453l-0.2,0.2l-0.2-0.1l-3.4-2.8l-16.7-13.8l-5-4.2
	l-1.3-1.2c-0.2-0.1-0.3-0.3-0.5-0.4c0.2,0.1,0.4,0.2,0.5,0.4l1.4,1.1l5.1,4.1l16.7,13.6l3.4,2.8h-0.3l13.3-13l4-3.8l1.1-1
	C641.2,434.7,641.3,434.5,641.4,434.4z"/>
<path class="st2" d="M680.9,433l22.8,19.7l22.6,10.5c1.5,0.7,2.2,2.4,1.5,4c0,0.1-0.1,0.2-0.2,0.3l0,0c-0.5,0.9-1.4,1.4-2.4,1.5
	c-6.4,0.7-29.9,3-31.5,1.5c-1.8-1.8-25.4-19.3-25.4-19.3L680.9,433z"/>
<path class="st0" d="M727.6,467.5l-35.4,1.7l1.6,1.3c0.7,0.5,1.6,0.8,2.5,0.6c3,0,11.2-0.2,29-2C726.2,469,727.1,468.4,727.6,467.5
	L727.6,467.5z"/>
<g class="st12">
	<path class="st7" d="M692.2,460.7c0.9-0.2,1.9,0.3,2.2,1.2c0.3,0.9-0.3,1.9-1.2,2.2c-1,0.2-2-0.3-2.3-1.3c-0.2-1,0.5-1.9,1.5-2.1"
		/>
</g>
<path class="st7" d="M713,464.3c0.2-0.1-0.6-1.6-0.1-3.5s1.9-2.9,1.7-3s-0.5,0.1-1,0.5c-0.7,0.6-1.2,1.4-1.4,2.4
	c-0.2,0.9-0.2,1.8,0.1,2.7C712.6,464,712.9,464.4,713,464.3z"/>
<path class="st7" d="M717.5,465.3c0.2,0,0.1-1.4,0.7-2.9s1.7-2.3,1.6-2.5s-1.5,0.5-2.2,2.2S717.3,465.3,717.5,465.3z"/>
<path class="st7" d="M706.4,464c0.2,0,0-2.1,0.8-4.5s2.3-3.9,2.1-4s-1.9,1.3-2.7,3.8S706.2,464.1,706.4,464z"/>
<path class="st7" d="M699,458.6c0.2,0,0.7-1.6,2.1-3.3s2.9-2.7,2.8-2.8s-1.9,0.6-3.3,2.4S698.8,458.6,699,458.6z"/>
<path class="st7" d="M693.9,455.1c0.2,0,0.5-1.9,2.1-3.5s3.4-2.2,3.4-2.4s-0.5-0.1-1.3,0.2c-2,0.7-3.5,2.4-4.1,4.4
	C693.8,454.6,693.8,455.1,693.9,455.1z"/>
<path class="st2" d="M506.9,405.8c0.5,1.1-1.6,37.8,33.8,38c31.7,0.2,74.4-28.4,79.3-26.6c3.2,1.2,58,48,58,48l19.8-22.8
	c0,0-50.7-47.6-55.7-51c-10.7-7.3-18.2-7.3-35.7-4.1c-15.7,2.8-54.2,15.4-54.2,15.4l-3.7-3.1L506.9,405.8z"/>
<path class="st3" d="M594.9,391l0.6-0.2c0.4-0.1,1-0.4,1.8-0.7c1.6-0.5,3.9-1.3,6.9-2.2c3.7-1,7.5-1.8,11.3-2.3
	c2.4-0.4,4.8-0.5,7.2-0.5c2.7,0,5.4,0.4,8,1c6,1.4,11.7,4.3,16.4,8.3c4.9,4.5,10,9.4,15.4,14.5l35.4,33.4l0.2,0.2l-0.2,0.2l-2.7,3.1
	c-2.9,3.4-6,6.8-9,10s-5.7,6.4-8.5,9.5l0.1,0.2l-31-26.4l-13.3-11.3l-6-5.1l-2.8-2.4c-0.5-0.4-0.9-0.8-1.4-1.1
	c-0.5-0.3-1-0.6-1.5-0.8c-2-0.8-4.3-0.8-6.3,0.1l-5.2,2.5l-8.3,4l-5.2,2.5l-1.4,0.6l-0.5,0.2l0.5-0.3l1.3-0.7l5.2-2.6l8.3-4.1
	l5.2-2.6c2.1-1,4.4-1,6.5-0.1c0.5,0.2,1.1,0.5,1.5,0.9c0.5,0.4,0.9,0.8,1.4,1.1l2.8,2.4l6,5.1l13.4,11.3l31.1,26.4l0.1,0.2
	c2.7-3.2,5.6-6.5,8.3-9.9s5.4-6.6,8.3-10l2.7-3.1v0.3l-35.3-33.4c-5.4-5.1-10.5-10-15.4-14.5c-4.7-4-10.2-6.9-16.2-8.3
	c-2.6-0.6-5.3-1-8-1c-2.4,0-4.8,0.1-7.2,0.5c-3.8,0.5-7.6,1.3-11.3,2.3c-3,0.8-5.4,1.6-6.9,2.1l-1.8,0.6L594.9,391z"/>
<path class="st4" d="M575.5,309.7c0,0,11.7,4.6,13.1,14.3c1.2,8.1-1.4,29.8-1.4,31.2c-0.1,1.3,0.4,2.5,1.2,3.5
	c1.4,1.5,2.2,3.5,2.2,5.6c0.1,1.4-0.2,2.8-0.7,4c-1.3,2.2-14.3,17-14.3,17l-11.5-23.6c0,0,7.6-22.1,7.6-22.6
	S575.5,309.7,575.5,309.7z"/>
<path class="st10" d="M588.8,367.4c0.5,0.1,17.4,11.9,17.4,11.9s4.1-7.8,6-8.1s7.5,1.9,8,2.5s1.6,0.7,2.7,0.8s3.1,2.9,3.1,2.9
	l3.8,2.8c0,0-1.2,2.2-1.5,2.6s-2.9-0.7-2.8-1.1s0.3,2.5-1.7,2.5c-1.6-0.1-3.1-0.5-4.5-1.2l-0.7-3.3l-4.4-1.3l-1.1,1.4
	c0,0,5,1,4.8,2.6c-0.1,0.9-0.7,1.7-1.6,2.1l-4.1-0.1l-9,2.1c0,0-23.7-5.1-24.5-7.8S581.8,366.5,588.8,367.4z"/>
<path class="st4" d="M588.9,361.9c2.1,1.7,3.7,3.9,4.7,6.4c1,2.4,12.3,10.5,12.3,10.5l-9.2,7.3c0,0-19.1,0.8-20-2s2.1-15.2,2.1-15.2
	L588.9,361.9z"/>
<path class="st4" d="M577.6,387.6c0,0-2.8-11.5-2.2-13.5c1.6-6,8.3-36.2,7.6-45.3s-7.5-19-7.5-19l-7.9-2.8
	c-3.2,6.9-15.5,4.7-25.6-3.4l-14.1,3.2l-13.7,62.7l-6.2,25.2c-3.3,12.8-1,11.2-1,11.2s15.4,4.8,27.5,2.6c9.1-1.6,22.3-7.9,25.3-10.2
	c7.1-5.5,18.4-5.1,18.4-5.1L577.6,387.6z"/>
<path class="st10" d="M555.3,388.1l8.3,3.3c0,0,4.6-2.7,5.3-3c3.9-0.7,7.8-1.2,11.7-1.4c1.3,0,2.6-0.1,3.8-0.3l-11,6.7l-7,9.1
	c-1.9,0.6-3.9,1-5.9,1c-3.1,0-10.3-1.7-10.3-1.7L555.3,388.1z"/>
<path class="st4" d="M519.2,373.3L519.2,373.3l7.7-33.7l2.1-32.8c0,0-17.5,2.3-22.3,18.1c-2.4,8-10.5,41.3-11.5,47.4s0,13.6,5,17.5
	s52.6,13.8,52.6,13.8L559,388L519.2,373.3z"/>
<path class="st10" d="M586.6,389c-0.1,0.7-0.8,1.3-1.5,1.2c-0.9,0-1.3-1.7-1.3-1.7l-4.1,0.5c0,0-5.9,7.3-8,9.4
	c-8.2,8.2-10.3,2.3-10.3,2.3l2.5-9.6l5.2-8.6c0,0-0.3,0.5-0.2-0.8s2.5-1.6,2.5-1.6c0.2-0.7,1.6-1.4,1.6-1.4l6.6-1.2
	c1.3-0.2,2.7,0.1,3.8,1l4,3.4c0,0,2.3,2.6,2.3,3.3c0,0.7-0.6,1.2-1.2,1.3c0,0,0.3,2.1-0.2,2.3C587.7,389,587.2,389.1,586.6,389
	L586.6,389z"/>
<path class="st11" d="M571.3,387.2c0,0.1,0.8-0.3,2.2-0.6c1.8-0.4,3.6-0.6,5.5-0.6c1,0,2,0.1,3,0.3c0.9,0.2,1.8,0.3,2.2,0.8
	c0.2,0.2,0.2,0.5,0.2,0.8c-0.1,0.2-0.2,0.4-0.3,0.5c-0.3,0.2-0.5,0.2-0.5,0.3s0.3,0.1,0.6-0.1c0.2-0.1,0.4-0.4,0.5-0.6
	c0.1-0.3,0.1-0.7-0.2-1c-0.3-0.3-0.7-0.5-1.1-0.6c-0.4-0.1-0.8-0.2-1.3-0.3c-1-0.2-2.1-0.3-3.1-0.4c-1.9-0.1-3.8,0.2-5.6,0.7
	C572.7,386.5,572,386.8,571.3,387.2z"/>
<path class="st11" d="M572.1,391.3c0,0.1,2.6-0.8,5.8-1.5s5.9-1.2,5.9-1.3c-0.6,0-1.2,0-1.8,0.1c-1.4,0.2-2.8,0.4-4.2,0.8
	c-1.4,0.3-2.8,0.7-4.1,1.2C573.1,390.7,572.6,391,572.1,391.3z"/>
<path class="st11" d="M586.5,388.9c0-0.2-0.1-0.5-0.1-0.7c-0.1-0.6-0.3-1.2-0.6-1.8c-0.2-0.4-0.3-0.8-0.6-1.2
	c-0.3-0.4-0.6-0.8-1-1.2c-0.9-0.8-2-1.3-3.1-1.7c-1.1-0.4-2.3-0.6-3.5-0.6c-1,0-1.9,0.2-2.9,0.4c-0.8,0.2-1.4,0.4-1.8,0.6
	c-0.2,0.1-0.5,0.1-0.7,0.3c0.9-0.1,1.7-0.3,2.6-0.5c0.9-0.2,1.9-0.3,2.8-0.3c1.1,0,2.3,0.3,3.4,0.6c1.1,0.3,2.1,0.9,3,1.6
	c0.7,0.6,1.3,1.3,1.6,2.2C586.2,387.9,586.5,388.9,586.5,388.9z"/>
<path class="st11" d="M573.8,380.3c0,0.1,1-0.2,2.5-0.5s3.9-0.8,5.8,0.8c1.7,1.1,3.3,2.4,4.7,3.9c0.5,0.7,1,1.4,1.3,2.1
	c0,0,0-0.3-0.2-0.7c-0.2-0.6-0.5-1.2-0.9-1.7c-1.3-1.6-2.9-3-4.7-4.1c-0.5-0.3-1-0.6-1.6-0.9c-0.6-0.2-1.1-0.3-1.7-0.2
	c-0.9,0-1.9,0.2-2.8,0.4C575.5,379.7,574.6,380,573.8,380.3z"/>
<path class="st11" d="M575.4,394.9c0.1-0.1,0.2-0.3,0.3-0.4l0.8-1.2c1-1.4,2.1-2.8,3.3-4.1h-0.1l4.1-0.5l-0.2-0.1
	c0.1,0.3,0.2,0.6,0.4,0.9c0.2,0.3,0.4,0.6,0.7,0.8c0.2,0.1,0.4,0.1,0.6,0.1c0.2,0,0.4-0.1,0.6-0.1c0.4-0.2,0.7-0.5,0.8-0.8
	c0-0.1,0.1-0.2,0.1-0.3v-0.1v0l0,0l-0.2,0.1h0.2h0.6c0.2,0,0.4,0,0.6,0l0.3-0.1c0.1,0,0.2-0.1,0.3-0.2c0.1-0.2,0.2-0.4,0.2-0.6
	c0-0.2,0-0.4,0-0.6c0-0.4,0-0.8-0.1-1.2l-0.2,0.2c0.6,0,1.1-0.4,1.3-0.9c0.1-0.3,0.1-0.6,0-0.9c-0.1-0.2-0.2-0.5-0.4-0.7
	c-0.6-0.9-1.3-1.7-2-2.5l0,0l-2.1-1.8c-0.4-0.4-0.9-0.8-1.3-1.1c-0.4-0.4-0.9-0.8-1.4-1.1c-0.5-0.3-1.1-0.4-1.7-0.5
	c-0.6,0-1.2,0-1.7,0.2l-6.1,1.2l0,0c-0.4,0.2-0.7,0.4-1,0.6c-0.3,0.2-0.6,0.5-0.7,0.9l0.2-0.1c-0.7-0.1-1.5,0.2-2,0.7
	c-0.4,0.5-0.6,1.2-0.5,1.9v-0.1c-1.5,2.5-2.7,4.5-3.6,5.9l-1,1.6c-0.1,0.2-0.2,0.4-0.3,0.6c0.1-0.2,0.3-0.4,0.4-0.5l1-1.6
	c0.9-1.4,2.2-3.4,3.7-5.8l0,0v-0.1c-0.1-0.6,0.1-1.2,0.5-1.6c0.4-0.5,1.1-0.7,1.7-0.6h0.2v-0.1c0.1-0.3,0.3-0.5,0.6-0.7
	c0.3-0.2,0.6-0.4,0.9-0.5l0,0l6.2-1.1c0.5-0.1,1.1-0.2,1.6-0.1c0.5,0,1.1,0.2,1.5,0.5c0.5,0.3,0.9,0.6,1.3,1l1.3,1.1l2.1,1.8l0,0
	c0.7,0.7,1.3,1.5,1.9,2.4c0.1,0.2,0.2,0.4,0.3,0.6c0.1,0.2,0.1,0.4,0,0.6c-0.2,0.4-0.6,0.7-1,0.7h-0.2v0.2c0,0.4,0.1,0.7,0.1,1.1
	c0,0.3,0,0.7-0.2,1c0,0-0.1,0.1-0.2,0.1c-0.1,0-0.2,0-0.3,0c-0.2,0-0.3,0-0.5,0c-0.2,0-0.4,0-0.5,0h-0.1c0.2-0.1-0.3,0.2-0.2,0.1
	l0,0v0.1c0,0.1,0,0.2-0.1,0.2c-0.1,0.3-0.3,0.5-0.6,0.6c-0.1,0.1-0.3,0.1-0.4,0.1c-0.1,0-0.3,0-0.4,0c-0.5-0.4-0.8-0.9-0.9-1.5v-0.1
	h-0.1l-4.1,0.6h-0.1l0,0c-1.2,1.3-2.2,2.7-3.2,4.2c-0.3,0.5-0.6,0.9-0.8,1.2C575.5,394.5,575.4,394.7,575.4,394.9z"/>
<path class="st2" d="M583.7,327.4c0,0.2,0,0.4,0,0.5c0,0.4-0.1,0.9-0.1,1.5c-0.1,1.3-0.3,3.2-0.6,5.5c-0.5,4.6-1.4,11-2.6,18
	s-2.5,13.3-3.7,17.8c-0.6,2.3-1,4.1-1.4,5.3c-0.2,0.6-0.3,1-0.4,1.4c0,0.2-0.1,0.3-0.2,0.5c0-0.2,0-0.4,0.1-0.5
	c0.1-0.4,0.2-0.9,0.3-1.5c0.3-1.3,0.7-3.2,1.3-5.4c1-4.5,2.3-10.8,3.5-17.8s2.1-13.4,2.7-18c0.3-2.2,0.6-4.1,0.8-5.5l0.2-1.5
	C583.6,327.7,583.7,327.5,583.7,327.4z"/>
<path class="st2" d="M552.8,403.6c0-0.1,0-0.2,0.1-0.3l0.3-0.9l1.2-3.3c1.1-2.9,2.6-6.9,4.5-11.9l0.1,0.3l-27.1-9.5l-12.7-4.5
	l-0.2-0.1l0-0.2l5.6-22.7l1.7-6.6c0.2-0.7,0.3-1.3,0.5-1.8c0-0.2,0.1-0.4,0.2-0.6c0,0.2-0.1,0.4-0.1,0.6c-0.1,0.4-0.2,1-0.4,1.8
	c-0.4,1.6-0.9,3.8-1.5,6.6l-5.4,22.8l-0.2-0.3l12.7,4.5l27,9.6l0.2,0.1l-0.1,0.2l-4.6,11.8l-1.3,3.2c-0.1,0.3-0.3,0.6-0.3,0.8
	S552.8,403.6,552.8,403.6z"/>
<path class="st2" d="M546.5,402.8c-0.6-0.1-1.2-0.2-1.7-0.3l-4.7-1c-4-0.8-9.5-2-15.5-3.5s-11.4-3.1-15.3-4.4
	c-1.9-0.6-3.5-1.2-4.5-1.6c-0.6-0.2-1.1-0.4-1.6-0.7c0.6,0.1,1.1,0.3,1.7,0.5l4.6,1.5c3.9,1.2,9.3,2.7,15.3,4.2s11.5,2.7,15.4,3.6
	l4.7,1.1C545.4,402.4,546,402.5,546.5,402.8z"/>
<path class="st0" d="M577,393.6L577,393.6c0.2,0.8,1.1,1.3,1.9,1.1l33.2-7.1l28.5-5.1l0.2-2.5l-27.3,3.9l-35.4,7.8
	C577.4,391.8,576.8,392.6,577,393.6C577,393.5,577,393.6,577,393.6z"/>
<path class="st0" d="M628.9,345.4l-15.3,38.6c-0.4,1.1,0.1,2.3,1.2,2.8c0.4,0.1,0.8,0.2,1.1,0.1l33.9-6.1c0.8-0.1,1.4-0.6,1.7-1.3
	l15.4-38.3c0.2-0.6-0.1-1.3-0.7-1.5c-0.2-0.1-0.3-0.1-0.5-0.1l-35,4.5C629.9,344.2,629.2,344.7,628.9,345.4z"/>
<path class="st2" d="M632.4,344.1c0.1,0-3.5,9.7-8.2,21.5s-8.5,21.4-8.7,21.3s3.5-9.7,8.2-21.5S632.3,344,632.4,344.1z"/>
<path class="st7" d="M640.9,362.4c-1,1.9-0.9,3.8,0.1,4.3s2.6-0.6,3.6-2.5s0.9-3.8-0.1-4.3S641.8,360.5,640.9,362.4z"/>
<path class="st2" d="M228.6,190.3c3.2-1.8,4.3-5.8,2.5-9c-1.1-1.9-3.1-3.2-5.3-3.3c2.8-2.8,2.9-7.4,0.1-10.3
	c-1.5-1.5-3.5-2.2-5.5-2.1c1.8-1.8,2.3-4.5,1.4-6.9c-1-2.3-2.9-4.2-5.2-5.1c-6.5-2.7-14,0-17.3,6.3l3.2,56.8
	c3.9,3.7,10.1,3.5,13.8-0.4c1-1.1,1.8-2.4,2.2-3.8c2-0.1,4-0.6,5.9-1.4c1.9-0.8,3.3-2.5,3.8-4.5c0.4-2-0.9-4.3-2.9-4.6
	c2.2-1.4,4.5-2.9,5.6-5.3S231.1,191,228.6,190.3z"/>
<path class="st3" d="M213.8,161.4c-0.7-2.9-2.9-5.3-5.3-7c-1-0.8-2.1-1.4-3.4-1.6c-1.3-0.2-2.5,0.3-3.3,1.4l0.2,2.1
	c-0.2,3.3,2.4,6.1,3.7,9.2c0.6,1.3,1,3,2.4,3.5c0.7,0.3,1.5,0.2,2.2-0.1C213.1,167.8,214.4,164.3,213.8,161.4z"/>
<path class="st2" d="M214.3,176.8c1.8-2.7,1.5-6.3-0.8-8.5c1.2-1.6,0.7-3.9-0.6-5.4c-1.4-1.4-3.1-2.4-5-3.1c-1.3-4.6-6-7.3-10.7-6.3
	c-2.4-3.4-7.4-3.7-11.3-2.5c-0.9,0.4-1.9,0.6-2.9,0.7c-0.7,0-1.5-0.1-2.2-0.2c-4.1-0.4-8,2.5-9.4,6.4c-0.2,0.6-0.5,1.2-0.8,1.8
	c-0.6,0.6-1.2,1.2-1.9,1.7c-1.4,1.2-2.3,3-2.3,4.8c0,1.6,0.5,3.2-0.1,4.7c-0.3,0.7-0.9,1.3-1.1,2.1c-0.7,2.2,1.8,4.3,1.4,6.6
	c-0.1,0.5-0.3,0.9-0.4,1.3c-0.2,0.9-0.1,1.9,0.3,2.8c0.4,0.6,0.8,1.3,0.9,2c0,0.6-0.1,1.1-0.3,1.6c-0.2,1.3,2.8,6.4,4,7.1l34.5-0.7
	c2.7-0.7,4.6-3,4.8-5.7c0-0.4,0.1-0.9,0.3-1.3c0.3-0.3,0.6-0.5,0.9-0.6c2.2-1.3,2.4-4.3,2.1-6.8c-0.1-0.3-0.1-0.7,0-1.1
	C213.7,177.6,213.9,177.2,214.3,176.8z"/>
<path class="st13" d="M204.5,177.1c-0.3-6.8-4.2-12.8-10.3-15.8c-2.8-1.2-5.8-1.8-8.9-1.9c-2.8-0.2-5.7,0.5-8.1,1.9
	c-1.9,0.5-8.7,7.1-8.8,14c-0.2,7.7-0.1,17.1,1.1,22.8c2.3,11.5,11.2,12.6,11.2,12.6v9.2l-0.8,7.2l23.3-5.8L204.5,177.1z"/>
<path class="st2" d="M172.6,185.4c0,0.8,0.7,1.4,1.5,1.4c0.8,0,1.4-0.6,1.5-1.4c0,0,0,0,0,0c0-0.8-0.7-1.4-1.5-1.4
	C173.3,184,172.6,184.6,172.6,185.4C172.6,185.3,172.6,185.4,172.6,185.4z"/>
<path class="st2" d="M171.2,179.7c0.2,0.2,1.3-0.7,2.9-0.7s2.8,0.7,2.9,0.5s-0.1-0.4-0.6-0.8c-0.7-0.4-1.5-0.7-2.4-0.6
	c-0.8,0-1.6,0.3-2.3,0.8C171.2,179.3,171.1,179.6,171.2,179.7z"/>
<path class="st2" d="M181,191.9c-0.8-0.2-1.7-0.3-2.6-0.4c-0.4,0-0.8-0.1-0.9-0.4c0-0.4,0-0.8,0.2-1.2c0.4-1,0.7-2,1.1-3.1
	c1.5-4.5,2.6-8.1,2.4-8.2s-1.5,3.5-3,8l-1,3.2c-0.2,0.5-0.3,1.1-0.1,1.6c0.1,0.3,0.4,0.5,0.7,0.6c0.2,0.1,0.5,0.1,0.7,0.1
	C179.3,192.1,180.2,192.1,181,191.9z"/>
<path class="st8" d="M180.6,210.8c5.4-0.1,10.7-1.8,15.3-4.8c0,0-3.7,8.4-15.3,7.8L180.6,210.8z"/>
<path class="st2" d="M171.6,173.7c0.3,0.4,1.5,0.1,2.9,0.1s2.6,0.4,2.9,0c0.1-0.2,0-0.6-0.5-0.9c-1.4-0.9-3.2-1-4.7-0.1
	C171.6,173.2,171.4,173.6,171.6,173.7z"/>
<path class="st2" d="M188.9,185.3c0,0.8-0.6,1.5-1.4,1.5c-0.8,0.1-1.5-0.5-1.5-1.3c0,0,0,0,0-0.1c0-0.8,0.6-1.5,1.4-1.5
	C188.2,183.9,188.9,184.5,188.9,185.3C188.9,185.3,188.9,185.3,188.9,185.3z"/>
<path class="st2" d="M193,179.5c-0.2,0.2-1.3-0.6-2.9-0.6s-2.8,0.8-2.9,0.6s0.1-0.4,0.6-0.8c0.7-0.5,1.5-0.7,2.4-0.7
	c0.8,0,1.6,0.3,2.3,0.7C192.9,179,193.1,179.4,193,179.5z"/>
<path class="st2" d="M193.2,174.1c-0.3,0.4-1.6,0-3,0s-2.7,0.3-3-0.1c-0.1-0.2,0.1-0.5,0.6-0.9c0.7-0.4,1.6-0.6,2.5-0.6
	c0.9,0,1.7,0.3,2.4,0.7C193.2,173.6,193.3,174,193.2,174.1z"/>
<path class="st13" d="M203,188.1c0-0.9,0.9-2.9,1.7-3.1c2.3-0.4,6.3-0.4,6.6,5.3c0.4,7.9-7.6,6.6-7.6,6.4S203.1,191.1,203,188.1z"/>
<path class="st8" d="M205.7,193.8c0,0,0.1,0.1,0.4,0.2c0.3,0.1,0.7,0.1,1,0c0.8-0.3,1.4-1.7,1.4-3.1c0-0.7-0.2-1.3-0.5-1.9
	c-0.2-0.5-0.6-0.9-1.1-1c-0.3-0.1-0.7,0.1-0.8,0.4c-0.1,0.2,0,0.4-0.1,0.4s-0.2-0.1-0.1-0.4c0-0.2,0.1-0.4,0.3-0.5
	c0.2-0.2,0.5-0.3,0.8-0.2c0.7,0.1,1.2,0.5,1.5,1.1c0.4,0.7,0.6,1.4,0.6,2.2c0,1.6-0.7,3.1-1.8,3.5c-0.4,0.1-0.9,0.1-1.3-0.1
	C205.8,194,205.7,193.8,205.7,193.8z"/>
<path class="st2" d="M166.6,175.6c1.6-0.9,2.5-2.5,2.3-4.3c1.1,0.3,2.1-1.1,2.7-2.1s1.3-1.4,1.2-2.5c0-0.2,0-0.4,0.1-0.6
	c0.1-0.3,0.5-0.4,0.8-0.5c1.7-0.6,2.9-2,3.3-3.8c1.7,0.7,3.6,0.9,5.4,0.7c1.4,1.9,4.1,2.3,6,0.8c0.5-0.4,0.9-0.9,1.2-1.4
	c0.6,1,1.5,1.6,2.6,1.8c1.1,0.2,2.2,0.2,3.3,0.1c-0.3,2.2,1,4.4,3.2,5c0.3,0.1,0.6,0.1,0.8,0.4c0.1,0.3,0.1,0.6-0.1,0.9
	c-0.5,1.9,0.6,3.8,2.4,4.4c0,0,0.1,0,0.1,0c-1.1,1-1.1,2.7-0.1,3.7c0.1,0.1,0.3,0.3,0.5,0.4c0.3,0.2,0.7,0.4,0.6,0.7
	c0,0.1-0.1,0.2-0.1,0.3c-0.6,0.8-1,1.7-1.1,2.6c-0.1,1,0.7,1.9,1.6,2c-0.5,0.4-0.9,1.1-0.9,1.8c0,0.7,0.7,1.4,1.4,1.1
	c1.5-0.4,2.9-0.8,4.3-1.3c2.1-3.1-0.8-6.3-1.2-10.1c-0.4-3.7-1.8-7.3-3.8-10.5c-0.8-1.4-1.8-2.6-2.9-3.7c-1.4-1.2-2.9-2.2-4.4-3
	c-2-1.3-4.2-2.2-6.4-2.8c-4.3-0.8-8.6,0.9-12.5,2.9c-1.5,0.7-2.9,1.6-4.2,2.7c-1.4,1.4-2.6,3-3.4,4.9c-1.4,2.5-2.3,5.3-2.5,8.2"/>
<path class="st3" d="M164.9,172.9c0.1-0.3,0.2-0.6,0.4-0.9c0.2-0.3,0.4-0.6,0.6-1c0.2-0.5,0.4-1,0.4-1.5c0-0.7,0-1.3-0.1-2
	c-0.1-0.8-0.1-1.6,0-2.3c0.1-0.9,0.5-1.8,0.9-2.5c0.3-0.4,0.6-0.8,0.9-1.1c0.4-0.4,0.8-0.7,1.2-1c0.4-0.3,0.8-0.7,1.2-1.1
	c0.3-0.5,0.5-1,0.7-1.5c0.4-1.1,1-2.2,1.8-3.1c0.8-1,1.9-1.8,3-2.5c0.6-0.3,1.2-0.6,1.9-0.8c0.7-0.2,1.4-0.3,2.1-0.3
	c0.4,0,0.7,0,1.1,0c0.4,0,0.7,0.1,1.1,0.1c0.7,0.1,1.4,0.1,2.1-0.1c0.7-0.2,1.4-0.4,2.1-0.6c0.7-0.2,1.5-0.4,2.2-0.5
	c0.8-0.1,1.5-0.1,2.3-0.1c0.8,0,1.6,0.1,2.3,0.3c1.6,0.4,3,1.2,4.1,2.5l0.3,0.4l-0.1-0.1c4.7-1.1,9.5,1.8,10.8,6.5l-0.1-0.1
	c1,0.4,1.9,0.8,2.8,1.4c0.9,0.5,1.7,1.2,2.3,1.9c0.6,0.8,1,1.7,1.1,2.7c0.1,0.9-0.1,1.9-0.6,2.7v-0.1c1.1,1.1,1.8,2.5,2,4
	c0.2,1.4-0.1,2.7-0.7,3.9c-0.1,0.3-0.3,0.5-0.5,0.8c-0.2,0.3-0.4,0.5-0.5,0.7c-0.1,0.2-0.2,0.5-0.3,0.8c0,0.3,0,0.5,0,0.8
	c0.1,1,0.1,2,0,3c-0.1,0.8-0.3,1.6-0.7,2.3c-0.3,0.5-0.7,1-1.2,1.3c-0.4,0.3-0.8,0.4-0.9,0.6c-0.1,0.1-0.2,0.2-0.3,0.3
	c0.1-0.1,0.2-0.2,0.3-0.3c0.2-0.2,0.6-0.3,0.9-0.6c0.5-0.3,0.9-0.8,1.1-1.3c0.4-0.7,0.6-1.5,0.6-2.3c0.1-1,0.1-2-0.1-3
	c0-0.3-0.1-0.6-0.1-0.8c0-0.3,0.1-0.6,0.3-0.9c0.2-0.3,0.3-0.5,0.5-0.7c0.2-0.2,0.3-0.5,0.5-0.8c0.6-1.2,0.8-2.5,0.6-3.8
	c-0.2-1.5-0.9-2.8-1.9-3.9l-0.1-0.1l0.1-0.1c0.5-0.7,0.7-1.7,0.6-2.6c-0.1-0.9-0.5-1.8-1.1-2.6c-0.6-0.8-1.4-1.4-2.3-1.9
	c-0.9-0.5-1.8-0.9-2.8-1.3l0,0l0,0c-0.6-2.1-2-4-3.9-5.1c-2-1.2-4.4-1.6-6.6-1.1h-0.1l-0.1-0.1l-0.3-0.4c-1-1.2-2.4-2-3.9-2.4
	c-0.7-0.2-1.5-0.3-2.3-0.3c-0.8,0-1.5,0-2.3,0.1c-0.7,0.1-1.5,0.2-2.2,0.5c-0.7,0.2-1.4,0.5-2.1,0.6c-0.4,0.1-0.7,0.1-1.1,0.2
	c-0.4,0-0.7,0-1.1-0.1l-1.1-0.1c-1-0.1-2,0-3,0.3c-0.6,0.2-1.2,0.5-1.8,0.8c-1.1,0.6-2.1,1.4-2.9,2.4c-0.8,0.9-1.4,1.9-1.8,3
	c-0.2,0.5-0.4,1.1-0.7,1.6c-0.3,0.4-0.7,0.8-1.2,1.1c-0.4,0.3-0.8,0.6-1.2,1c-0.3,0.3-0.7,0.7-0.9,1.1c-0.5,0.7-0.8,1.6-0.9,2.5
	c-0.1,0.8-0.1,1.5,0,2.3c0.1,0.7,0.1,1.3,0.1,2c0,0.5-0.2,1-0.4,1.5c-0.2,0.4-0.4,0.7-0.6,1c-0.1,0.2-0.2,0.4-0.3,0.6
	C165,172.8,165,172.9,164.9,172.9z"/>
<path class="st3" d="M193.4,151.9c0,0-0.2-0.1-0.6-0.3c-0.5-0.2-1.1-0.4-1.7-0.4c-0.9-0.1-1.8,0.1-2.6,0.5c-1,0.5-1.8,1.3-2.3,2.2
	c-0.2,0.3-0.3,0.6-0.4,0.9c-0.1,0.3-0.1,0.6,0.1,0.8l0.2,0.3l-0.3-0.1c-0.8-0.2-1.7-0.1-2.4,0.4c-0.6,0.3-1,0.9-1.3,1.5
	c-0.2,0.4-0.3,0.9-0.3,1.3c0,0.2,0,0.3,0,0.5c0,0,0,0,0-0.1c0-0.1,0-0.2-0.1-0.4c0-0.5,0-0.9,0.2-1.4c0.2-0.7,0.7-1.2,1.3-1.6
	c0.8-0.5,1.7-0.6,2.6-0.4l-0.1,0.2c-0.2-0.3-0.2-0.7-0.1-1c0.1-0.3,0.2-0.7,0.4-1c0.5-1,1.4-1.8,2.4-2.3c1.4-0.7,3-0.6,4.4,0.1
	c0.2,0.1,0.3,0.2,0.4,0.3C193.4,151.9,193.4,151.9,193.4,151.9z"/>
<path class="st3" d="M206.5,160.5c0,0-0.1,0.1-0.3,0.3c-0.3,0.2-0.6,0.5-0.9,0.6c-0.5,0.3-1,0.5-1.6,0.5c-0.7,0.1-1.4-0.1-2-0.5h0.2
	l-0.2,0.3c-0.1,0.1-0.2,0.2-0.3,0.3c-0.5,0.6-1.2,1-1.9,1.3c-0.6,0.2-1.2,0.3-1.9,0.3c-0.4,0-0.8-0.1-1.3-0.2
	c-0.1,0-0.3-0.1-0.4-0.2c0.5,0.2,1.1,0.2,1.7,0.3c0.6,0,1.2-0.1,1.8-0.3c0.7-0.3,1.3-0.7,1.8-1.3l0.2-0.3l0.2-0.3l0.1-0.1l0.1,0.1
	c0.5,0.4,1.2,0.6,1.8,0.5c0.5,0,1-0.2,1.5-0.4C206.1,160.8,206.5,160.4,206.5,160.5z"/>
<path class="st3" d="M211,167.6c0,0,0,0,0,0.1c0,0.1-0.1,0.3-0.2,0.4c-0.3,0.4-0.7,0.8-1.2,0.9c-0.7,0.2-1.5,0.1-2.3-0.2
	c-0.4-0.1-0.8-0.3-1.3-0.4c-0.5-0.2-0.9-0.5-1.1-1l-0.1-0.1l0.2,0.1c-0.7,0.6-1.4,1.1-2.3,1.5c-0.7,0.3-1.5,0.4-2.2,0.3
	c-0.5-0.1-1-0.3-1.4-0.6c-0.1-0.1-0.2-0.2-0.3-0.3c-0.1-0.1-0.1-0.1-0.1-0.1s0.1,0.1,0.4,0.3c0.4,0.3,0.9,0.4,1.4,0.5
	c0.7,0.1,1.4-0.1,2.1-0.4c0.8-0.4,1.6-0.9,2.2-1.5l0.1-0.1l0.1,0.1l0.1,0.1c0.2,0.4,0.6,0.7,1,0.8c0.4,0.2,0.8,0.3,1.2,0.4
	c0.7,0.3,1.4,0.3,2.1,0.2c0.5-0.1,0.9-0.4,1.2-0.8C210.8,167.9,210.9,167.8,211,167.6z"/>
<path class="st8" d="M186.3,195.5c-0.1-0.4-0.2-0.7-0.4-1c-0.2-0.3-0.5-0.5-0.9-0.5c-0.3,0-0.5,0.1-0.7,0.3l-2.8,1.7l-0.2,0.7
	c0.6,0.9,1.3,1.6,2.2,2.2c0.3,0.2,0.6,0.3,0.9,0.3c0.4,0,0.8-0.2,1.1-0.5C186.5,198.1,186.9,196.7,186.3,195.5L186.3,195.5z"/>
<path class="st2" d="M184.2,199.5c0.5-0.2,1-0.6,1.4-0.9c1-1,1.2-2.4,0.5-3.6c-0.1-0.2-0.2-0.3-0.3-0.5c-0.1-0.1-0.2-0.3-0.4-0.3
	c-0.1-0.1-0.3-0.1-0.4,0c-0.1,0.1-0.3,0.1-0.4,0.2l-1.6,1c-0.5,0.3-1,0.6-1.5,0.8c0.4-0.4,0.9-0.7,1.4-1c0.4-0.3,1-0.7,1.6-1.1
	c0.2-0.1,0.3-0.2,0.5-0.3c0.2-0.1,0.5-0.1,0.7,0.1c0.2,0.1,0.4,0.3,0.5,0.4c0.1,0.2,0.3,0.3,0.4,0.5c0.4,0.7,0.5,1.6,0.3,2.4
	c-0.1,0.6-0.5,1.2-1,1.7c-0.3,0.3-0.7,0.5-1.1,0.7C184.4,199.5,184.2,199.5,184.2,199.5z"/>
<path class="st13" d="M111,296.1l3.9-5.9l6.3-3.2l0.2-0.2c2.1-1.5,4.7-2,7.1-1.3c2.6,0.7,6,1.5,9,2l6.8-1.9v13.2l-34.2-2.2
	L111,296.1z"/>
<path class="st8" d="M111.3,295.8c0.4-0.5,0.9-0.9,1.4-1.3c0.9-0.8,2.2-1.8,3.7-3l1.3-1l0,0l0,0c1.4-0.3,2.6-0.5,3.5-0.6
	c0.5-0.1,0.9-0.2,1.4-0.1c-0.4,0.2-0.9,0.3-1.3,0.4c-0.8,0.2-2.1,0.5-3.5,0.8h0.1l-1.3,1.1c-1.4,1.1-2.8,2.1-3.8,2.9
	C112.3,295.1,111.8,295.5,111.3,295.8z"/>
<path class="st8" d="M113.9,296.9c1.6-1.1,3.2-2.1,4.9-3l1.2-0.7l0,0l0,0c1.5-0.1,2.9-0.2,4.4-0.1c-1.4,0.3-2.9,0.4-4.3,0.5h0.1
	l-1.2,0.7C117.4,295.3,115.7,296.2,113.9,296.9z"/>
<path class="st3" d="M71.2,258.7c1.1-0.7,2.6-0.3,3.4,0.7l27.6,37.3l43.6,0.6c1.7,0.1,3.9,3.6,2.3,5.3L98.8,302l-28.4-39.5
	c-0.9-1.2-0.6-2.8,0.5-3.6C71,258.8,71.1,258.7,71.2,258.7z"/>
<path class="st2" d="M71.2,258.7c0,0-0.1,0-0.2,0.1c-0.2,0.1-0.4,0.3-0.6,0.5c-0.7,0.8-0.8,1.8-0.4,2.7c0.3,0.6,0.7,1.2,1.2,1.8
	l1.4,2l3.6,5.1L98.6,302l0.1,0.1h0.1l48.3,0.7h1l0.1-0.1c0.4-0.5,0.6-1.1,0.6-1.8c0-0.6-0.2-1.2-0.5-1.8c-0.3-0.5-0.6-1-1.1-1.4
	c-0.4-0.5-1-0.7-1.6-0.8l-6.7-0.1l-13-0.2l-23.7-0.3l0.2,0.1l-21.7-29.2l-6.1-8.2c-0.6-0.7-1.5-1-2.4-0.9
	C71.8,258.4,71.5,258.5,71.2,258.7c0.3-0.1,0.6-0.2,0.9-0.3c0.9-0.1,1.8,0.2,2.3,0.9l6,8.2l21.6,29.3l0.1,0.1h0.1l23.7,0.3l13,0.2
	l6.7,0.1c0.5,0,1,0.3,1.4,0.6c0.4,0.4,0.7,0.8,0.9,1.3c0.6,0.9,0.6,2.1-0.1,3l0.2-0.1h-0.9l-48.3-0.6l0.2,0.1l-22.5-31.2l-3.7-5
	l-1.5-2c-0.4-0.5-0.8-1.1-1.2-1.7c-0.4-0.9-0.3-1.9,0.3-2.6C70.7,259.1,70.9,258.9,71.2,258.7z"/>
<path class="st4" d="M206.6,215.6c1.9,1,3.8,2.2,5.4,3.7c2.6,2.6,4.4,5.9,5.1,9.5c0.9,4.5,0.2,21.3,0.2,26.3s-1.3,23.7-1.9,26.9
	s0.4,7.8,1.9,10.8c2.6,5.4-1.4,8.2-1.4,8.2l-53.5-0.4l0.2-2c0.4-3.5-0.9-7,0.4-10.3s3.4-10.5,2.3-16.7c0,0-6.7-8.3-1.2-21.7
	c3.1-7.6,11.3-17.8,18.9-28.9c0,0,12.8-4.2,11-3.6C193.5,217.4,203.4,215.3,206.6,215.6z"/>
<path class="st4" d="M140.4,284.2l45.7-9.5l1.2-39.7c0,0,1.6-16.2,9.7-17.7l19.5,24.3c-1.1,12.2-0.1,35.4-5.7,44.3
	s-11.1,16.1-24.9,15.5s-44.4-0.9-44.4-0.9L140.4,284.2z"/>
<path class="st2" d="M186,274.8c-0.1,0.1,1,1.5,1.9,3.5s1.3,3.8,1.5,3.7c0-1.4-0.4-2.7-1-3.9C187.9,276.8,187,275.7,186,274.8z"/>
<g class="st14">
	<path d="M187.6,233.2c-4.6,14-3.6,35.7-12.3,43.6l10.8-2.3c-0.2-2.5-0.2-5.1-0.1-7.6C186.9,255.9,187,244.6,187.6,233.2"/>
</g>
<path class="st2" d="M188.6,228.2c-0.3,1-0.6,2.1-0.8,3.2c-0.3,1.3-0.4,2.6-0.6,3.9c-0.1,1.6-0.2,3.4-0.3,5.4
	c-0.3,8.1-0.6,19.7-1.1,33.9l0.1-0.2l-45.7,9.6h-0.2v0.2c0.3,5.2,0.7,10.7,1.1,16.3v0.2h0.2l5.6,0.1c7.9,0.1,15.7,0.2,23.2,0.4
	c3.8,0.1,7.4,0.2,11,0.3s7.1,0.4,10.6-0.1c1.7-0.2,3.4-0.7,5-1.3c1.5-0.6,3-1.4,4.4-2.4c2.6-1.9,4.8-4.2,6.6-6.9
	c0.9-1.2,1.7-2.5,2.5-3.8l0.6-0.9c0.2-0.3,0.4-0.6,0.5-1l0.5-1l0.4-1c0.9-2.6,1.6-5.2,2-7.9c0.7-4.6,1.2-9.3,1.3-14
	c0.2-4.1,0.3-7.7,0.4-10.6s0.2-5.2,0.3-6.7c0.1-0.8,0.1-1.3,0.1-1.7s0-0.6,0-0.6s0,0.2-0.1,0.6s-0.1,1-0.1,1.7
	c-0.1,1.5-0.2,3.8-0.4,6.7s-0.3,6.5-0.5,10.6c-0.2,4.7-0.7,9.3-1.4,14c-0.4,2.7-1,5.4-1.9,7.9c-0.1,0.3-0.3,0.6-0.4,1
	s-0.3,0.6-0.5,1s-0.3,0.6-0.5,1l-0.6,0.9c-0.8,1.3-1.6,2.5-2.5,3.7c-1.8,2.6-4,4.9-6.5,6.7c-1.3,0.9-2.8,1.7-4.3,2.3
	c-1.6,0.6-3.2,1-4.9,1.3c-3.4,0.5-6.9,0.2-10.5,0.1s-7.3-0.2-11-0.3c-7.5-0.2-15.3-0.3-23.2-0.4l-5.6-0.1l0.2,0.2
	c-0.4-5.6-0.7-11-1.1-16.3l-0.2,0.2l45.7-9.6h0.1v-0.1c0.4-14.2,0.7-25.8,0.9-33.9c0.1-2,0.1-3.8,0.2-5.4s0.3-2.9,0.5-3.9
	s0.4-1.9,0.5-2.4c0.1-0.3,0.1-0.4,0.1-0.6S188.6,228.2,188.6,228.2z"/>
<polygon class="st13" points="111.6,372.1 118.2,422.1 101.1,425 88.9,380.6 "/>
<path class="st2" d="M165.8,304.7c0,0-62.6-4.3-75.6-2.1c-7.9,1.3-14.6,14-10.3,21.7c2,3.6,5.2,14.9,5.2,14.9l33.7-8L165.8,304.7z"
	/>
<polygon class="st13" points="118.7,339.2 132.3,360.6 116.3,371.3 99,343.8 "/>
<path class="st2" d="M209.7,300.8c0,0,6.3,29.9-4.1,42.1s-25.7,12.2-41.5,9.8s-53.3-3.1-53.3-3.1s1.7,10.6,2.9,22.7
	s1.5,19.8,1.5,19.8l-23.5,2c0,0-13.1-41.3-15.1-49.4s-1.3-19.1,5.6-23.2c5.9-3.5,52.4-16.8,74.7-18.8l2.4-2.1L209.7,300.8z"/>
<path class="st3" d="M99.2,339.7c0,0.1,0.9,0.2,2.3,0.7c0.8,0.3,1.6,0.7,2.3,1.1c0.9,0.6,1.8,1.2,2.6,1.9c0.8,0.7,1.5,1.6,2.1,2.4
	c0.5,0.7,0.9,1.5,1.3,2.3c0.6,1.4,0.9,2.3,1,2.3c0-0.2,0-0.5-0.1-0.7c-0.1-0.6-0.3-1.2-0.6-1.8c-0.3-0.8-0.8-1.7-1.3-2.4
	c-0.6-0.9-1.3-1.8-2.2-2.5c-0.8-0.8-1.7-1.4-2.7-2c-0.8-0.4-1.6-0.8-2.4-1.1c-0.6-0.2-1.2-0.3-1.8-0.4
	C99.7,339.6,99.5,339.6,99.2,339.7z"/>
<path class="st3" d="M102,314.7c-0.2-0.9-0.7-1.8-1.2-2.5c-0.4-0.8-1-1.5-1.8-2.1c0.4,0.9,0.9,1.6,1.4,2.4
	C100.9,313.3,101.4,314,102,314.7z"/>
<path class="st3" d="M75.5,333.2c0-0.1,0.1-0.1,0.1-0.2c0.1-0.2,0.1-0.4,0.2-0.7c0.1-0.6,0.4-1.5,0.7-2.6c0.4-1.4,1-2.7,1.7-3.9
	c0.9-1.7,2.2-3,3.8-4c4.4-2,8.9-3.7,13.5-5c5.2-1.6,10.9-3.3,17-5c12.1-3.3,23.2-5.7,31.3-7.1c4-0.7,7.3-1.2,9.6-1.5l2.6-0.4
	l0.7-0.1l0.2,0h-0.2l-0.7,0.1l-2.6,0.3c-2.3,0.3-5.6,0.7-9.6,1.4c-10.6,1.8-21,4.1-31.3,7c-6.1,1.7-11.8,3.4-17,5
	c-4.6,1.4-9.2,3.1-13.6,5.1c-1.7,1-3,2.4-3.9,4.1c-0.7,1.3-1.2,2.6-1.6,4c-0.3,1.1-0.5,2-0.6,2.7c-0.1,0.3-0.1,0.5-0.1,0.7
	L75.5,333.2z"/>
<path class="st3" d="M99.7,423.7l-0.6-2.2c7.1-0.6,13.7-3.6,18.9-8.5l5.8,13L85.1,444C83.7,440.1,99.7,423.7,99.7,423.7z"/>
<path class="st0" d="M123.9,426.1l-1.4-3.2l-36.7,18.3c0,0-1.4,1.5-0.6,2.7L123.9,426.1z"/>
<path class="st2" d="M100.2,423.5c0.1,0.2,1.1-0.2,2.3,0s2.1,0.8,2.2,0.6s-0.6-1.1-2.1-1.3S100.1,423.3,100.2,423.5z"/>
<path class="st0" d="M115.3,422.1c0.3,0.6,0.9,0.8,1.5,0.5c0,0,0,0,0,0c0.6-0.3,0.8-0.9,0.5-1.5c-0.3-0.6-0.9-0.8-1.5-0.5
	c0,0,0,0,0,0C115.3,420.8,115,421.5,115.3,422.1z"/>
<path class="st2" d="M100.5,423.2c0.3,0,0.6-0.1,0.9-0.2c0.8-0.2,1.6-0.6,2.2-1.2c0.2-0.2,0.4-0.4,0.5-0.7c0.2-0.3,0.3-0.6,0.3-0.9
	c0-0.4-0.2-0.8-0.6-1c-0.4-0.2-0.8-0.2-1.2,0c-1.5,0.8-2.4,2.3-2.4,3.9l0.6-0.1c-0.1-0.3-0.2-0.6-0.4-0.9c-0.8-1.5-2.5-2.5-4.2-2.5
	c-0.2,0-0.4,0-0.7,0.1c-0.2,0.1-0.4,0.3-0.4,0.6c-0.1,0.4,0,0.8,0.3,1.2c0.4,0.5,0.9,1,1.5,1.2c0.8,0.3,1.7,0.5,2.7,0.4
	C99.8,423.2,100.2,423.2,100.5,423.2c-0.3-0.2-0.6-0.2-1-0.2c-0.9,0-1.7-0.2-2.5-0.6c-0.5-0.2-1-0.6-1.3-1.1
	c-0.2-0.2-0.2-0.5-0.2-0.8c0-0.2,0.2-0.3,0.6-0.3c1.5,0,2.9,0.9,3.7,2.2c0.1,0.3,0.2,0.5,0.3,0.8c0,0.1,0.2,0.2,0.3,0.2c0,0,0,0,0,0
	c0.1,0,0.2-0.2,0.2-0.3c0-1.4,0.8-2.7,2-3.4c0.5-0.3,1.1,0,1.1,0.4c-0.1,0.5-0.3,1-0.7,1.4c-0.6,0.6-1.2,1-2,1.3
	C100.9,422.9,100.7,423,100.5,423.2z"/>
<path class="st2" d="M97.3,426.3c0.9,0,1.7,0,2.6,0.2c0.8,0.3,1.6,0.6,2.3,1.1c-0.5-0.8-1.3-1.4-2.2-1.5
	C99,425.7,98.1,425.8,97.3,426.3z"/>
<path class="st2" d="M95.1,428.8c0,0.1,1.1,0.1,2.3,0.5s2.1,1,2.2,0.9c-0.5-0.7-1.2-1.1-2-1.3C96.8,428.5,95.9,428.5,95.1,428.8z"/>
<path class="st3" d="M113.3,368.9l-0.9-2c6.9-1.9,12.9-6,17.3-11.6l7.8,11.8l-35.3,24.3C100.1,387.9,113.3,368.9,113.3,368.9z"/>
<path class="st0" d="M137.4,367.1l-1.9-2.9l-33.2,24.5c0,0-1.1,1.8-0.2,2.8L137.4,367.1z"/>
<path class="st2" d="M113.7,368.6c0.1,0.2,1-0.4,2.3-0.4s2.2,0.4,2.3,0.2s-0.8-1-2.3-0.9S113.6,368.5,113.7,368.6z"/>
<path class="st0" d="M128.4,364.6c0.3,0.5,1,0.6,1.5,0.3c0,0,0,0,0,0c0.5-0.4,0.6-1.1,0.3-1.6c-0.3-0.5-1-0.6-1.5-0.3c0,0,0,0,0,0
	C128.1,363.4,128,364.1,128.4,364.6z"/>
<path class="st2" d="M113.9,368.3c0.3-0.1,0.6-0.2,0.8-0.3c0.8-0.3,1.4-0.9,1.9-1.6c0.2-0.2,0.3-0.5,0.4-0.8c0.1-0.3,0.2-0.7,0.2-1
	c0-0.4-0.3-0.8-0.8-0.9c-0.4-0.1-0.8,0-1.2,0.3c-1.3,1-2,2.6-1.7,4.3l0.6-0.2c-0.1-0.3-0.3-0.6-0.5-0.8c-1.1-1.4-2.8-2-4.5-1.7
	c-0.2,0-0.4,0.1-0.6,0.2c-0.2,0.2-0.3,0.4-0.3,0.7c0,0.4,0.2,0.8,0.5,1.1c0.4,0.5,1,0.8,1.7,1c0.9,0.2,1.8,0.2,2.7-0.1
	C113.3,368.5,113.6,368.4,113.9,368.3c-0.3,0-0.7,0-1,0c-0.8,0.1-1.7,0.1-2.5-0.1c-0.5-0.2-1-0.5-1.4-0.9c-0.2-0.2-0.3-0.5-0.3-0.7
	c0-0.2,0.2-0.3,0.5-0.4c1.5-0.3,3,0.3,4,1.5c0.2,0.2,0.3,0.5,0.5,0.7c0.1,0.1,0.2,0.2,0.4,0.1c0,0,0,0,0,0c0.1-0.1,0.2-0.2,0.2-0.3
	c-0.2-1.4,0.3-2.8,1.4-3.7c0.5-0.4,1.1-0.2,1.1,0.2c0,0.5-0.1,1-0.4,1.5c-0.4,0.7-1,1.2-1.7,1.6
	C114.2,368.1,113.9,368.2,113.9,368.3z"/>
<path class="st2" d="M111.3,371.8c0.8-0.2,1.7-0.2,2.6-0.3c0.8,0.1,1.7,0.4,2.5,0.6c-0.6-0.7-1.5-1.1-2.5-1.1
	C112.9,371,112,371.2,111.3,371.8z"/>
<path class="st2" d="M109.5,374.7c0,0.1,1.1-0.1,2.3,0.1s2.2,0.6,2.3,0.5c-0.6-0.6-1.4-0.9-2.2-1
	C111.1,374.2,110.3,374.3,109.5,374.7z"/>
</svg>
